<svg width="100" height="100" viewBox="0 0 100 100" fill="none" xmlns="http://www.w3.org/2000/svg">
<mask id="mask0_28_2" style="mask-type:alpha" maskUnits="userSpaceOnUse" x="0" y="18" width="100" height="74">
<rect y="18" width="100" height="74" fill="#D9D9D9"/>
</mask>
<g mask="url(#mask0_28_2)">
<path d="M100.314 99.1188C100.374 99.0773 100.465 99.093 100.583 99.1667C100.639 99.3879 100.673 99.6627 100.686 99.9891C100.701 100.316 100.691 100.634 100.66 100.944C100.628 101.254 100.565 101.488 100.472 101.645C100.278 101.635 100.141 101.569 100.063 101.445C99.9862 101.32 99.9411 101.165 99.9264 100.981C99.9116 100.797 99.9042 100.603 99.9042 100.398V100.358C99.6922 100.164 99.4194 100.014 99.0857 99.9078C98.7538 99.8 98.4128 99.7457 98.0643 99.7457C97.786 99.7457 97.5241 99.7853 97.2789 99.8636C97.0356 99.9429 96.8345 100.066 96.6778 100.232C96.5469 100.371 96.4538 100.537 96.3976 100.73C96.3432 100.925 96.3441 101.156 96.4012 101.423C96.4178 101.525 96.4658 101.637 96.545 101.763C96.6234 101.888 96.7 101.988 96.7737 102.061L96.8586 102.142C97.0798 102.347 97.3536 102.537 97.6808 102.714C98.0099 102.889 98.3593 103.066 98.728 103.245C99.0968 103.425 99.4434 103.625 99.7679 103.846C100.072 104.051 100.336 104.281 100.557 104.539C100.778 104.797 100.931 105.098 101.018 105.439C101.106 105.781 101.092 106.179 100.974 106.634C100.87 107.039 100.668 107.389 100.369 107.681C100.068 107.971 99.7161 108.185 99.3105 108.322C98.9022 108.46 98.4597 108.522 97.9831 108.507C97.5084 108.494 97.0318 108.396 96.5525 108.212C96.4612 108.229 96.3829 108.263 96.3165 108.315C96.252 108.367 96.192 108.425 96.1358 108.488C96.0546 108.571 95.9717 108.634 95.8888 108.676C95.8049 108.718 95.6897 108.678 95.5422 108.558C95.4408 108.391 95.3707 108.173 95.332 107.902C95.2952 107.629 95.2841 107.338 95.2988 107.028C95.3136 106.718 95.3476 106.427 95.402 106.154C95.4583 105.881 95.5283 105.667 95.6122 105.509C95.8233 105.583 95.9663 105.701 96.04 105.863C96.1137 106.025 96.1691 106.204 96.2059 106.398C96.252 106.599 96.2963 106.799 96.3387 106.999C96.3802 107.198 96.475 107.377 96.6225 107.533C96.7792 107.691 96.9692 107.804 97.1904 107.872C97.4116 107.942 97.6421 107.976 97.8835 107.976C98.1877 107.967 98.4901 107.908 98.7906 107.802C99.0902 107.697 99.353 107.554 99.5798 107.375C99.8056 107.193 99.9503 106.987 100.015 106.755C100.071 106.36 100.057 106.042 99.9742 105.8C99.8904 105.56 99.7613 105.361 99.5871 105.207C99.3751 105.003 99.1152 104.84 98.8055 104.716C98.4957 104.591 98.1877 104.44 97.8835 104.263C97.7628 104.189 97.6532 104.102 97.5555 104.001C97.4596 103.898 97.3507 103.815 97.2309 103.75C97.1028 103.676 96.9663 103.617 96.8216 103.573C96.6787 103.527 96.557 103.47 96.4565 103.403C96.2427 103.266 96.0593 103.086 95.9073 102.865C95.7542 102.644 95.6417 102.403 95.568 102.142C95.5311 102.015 95.5025 101.882 95.4831 101.744C95.4656 101.604 95.4573 101.46 95.4573 101.313C95.4573 101.018 95.5053 100.728 95.6011 100.443C95.6989 100.155 95.85 99.8959 96.0547 99.6645C96.4133 99.4976 96.8189 99.3686 97.2715 99.2773C97.7259 99.1842 98.1878 99.1447 98.6579 99.1594C99.1298 99.1723 99.5687 99.2663 99.9742 99.4432C100.011 99.4239 100.043 99.4009 100.07 99.3732C100.1 99.3465 100.123 99.3142 100.14 99.2773C100.196 99.2109 100.255 99.1585 100.314 99.1188Z" fill="#222222"/>
<path d="M16.5373 99.3179C16.8516 99.3179 17.1384 99.3466 17.3965 99.4028C17.6546 99.4572 17.8517 99.5715 17.99 99.7457C17.9457 99.8858 17.837 99.9659 17.6656 99.9853C17.496 100.003 17.3172 100.006 17.131 99.9963H16.7991C16.7623 100.024 16.7714 100.092 16.8285 100.203C16.8451 100.24 16.8618 100.279 16.8766 100.321C16.8913 100.363 16.8987 100.402 16.8987 100.439C16.8591 100.476 16.8295 100.52 16.8102 100.572C16.7927 100.623 16.7751 100.686 16.7585 100.76C16.7484 100.991 16.7438 101.22 16.7438 101.445C16.7438 101.672 16.7382 101.905 16.7289 102.142C16.7216 103.03 16.7152 103.926 16.7106 104.83C16.7051 105.736 16.7032 106.636 16.7032 107.533C16.9143 107.543 17.1438 107.595 17.3927 107.688C17.6434 107.779 17.8241 107.922 17.9347 108.116C17.7033 108.254 17.4378 108.328 17.1382 108.337C16.8377 108.344 16.5271 108.34 16.2054 108.322C16.0109 108.313 15.8192 108.306 15.6302 108.3C15.4403 108.296 15.2577 108.308 15.0807 108.337C15.0264 108.344 14.9849 108.366 14.9554 108.4C14.9278 108.432 14.9011 108.466 14.8743 108.503C14.8467 108.556 14.8098 108.604 14.7637 108.647C14.7167 108.688 14.643 108.696 14.5425 108.669C14.4485 108.538 14.4134 108.41 14.4355 108.282C14.4595 108.152 14.5111 108.029 14.5904 107.913C14.6687 107.798 14.7396 107.703 14.8042 107.629H15.4421C15.5527 107.629 15.6495 107.611 15.7334 107.574C15.7232 106.743 15.7187 105.859 15.7187 104.923C15.7187 103.984 15.7095 103.057 15.6929 102.142C15.6828 101.422 15.6541 100.73 15.6081 100.067C15.5435 100.047 15.4753 100.035 15.4015 100.03C15.3278 100.025 15.2485 100.022 15.1656 100.022C15.0347 100.022 14.9093 100.019 14.7895 100.011C14.6715 100.002 14.5654 99.9595 14.4723 99.8857C14.4548 99.812 14.4576 99.7566 14.4797 99.7198C14.5019 99.6829 14.5277 99.646 14.5572 99.6092C14.5839 99.5824 14.606 99.5529 14.6235 99.5207C14.6429 99.4866 14.6531 99.446 14.6531 99.399C14.9379 99.399 15.244 99.3862 15.5712 99.3585C15.9003 99.3318 16.222 99.3179 16.5373 99.3179Z" fill="#222222"/>
<path d="M108.634 99.3179C108.948 99.3179 109.235 99.3466 109.493 99.4028C109.751 99.4572 109.948 99.5715 110.086 99.7457C110.042 99.8858 109.933 99.9659 109.762 99.9853C109.592 100.003 109.414 100.006 109.227 99.9963H108.896C108.859 100.024 108.868 100.092 108.925 100.203C108.942 100.24 108.958 100.279 108.973 100.321C108.988 100.363 108.995 100.402 108.995 100.439C108.955 100.476 108.926 100.52 108.907 100.572C108.889 100.623 108.872 100.686 108.855 100.76C108.845 100.991 108.84 101.22 108.84 101.445C108.84 101.672 108.835 101.905 108.825 102.142C108.818 103.03 108.812 103.926 108.807 104.83C108.802 105.736 108.8 106.636 108.8 107.533C109.011 107.543 109.24 107.595 109.489 107.688C109.74 107.779 109.92 107.922 110.031 108.116C109.8 108.254 109.534 108.328 109.235 108.337C108.934 108.344 108.624 108.34 108.302 108.322C108.107 108.313 107.916 108.306 107.727 108.3C107.537 108.296 107.354 108.308 107.177 108.337C107.123 108.344 107.081 108.366 107.052 108.4C107.024 108.432 106.997 108.466 106.971 108.503C106.943 108.556 106.906 108.604 106.86 108.647C106.813 108.688 106.739 108.696 106.639 108.669C106.545 108.538 106.51 108.41 106.532 108.282C106.556 108.152 106.608 108.029 106.687 107.913C106.765 107.798 106.836 107.703 106.901 107.629H107.539C107.649 107.629 107.746 107.611 107.83 107.574C107.82 106.743 107.815 105.859 107.815 104.923C107.815 103.984 107.806 103.057 107.789 102.142C107.779 101.422 107.751 100.73 107.704 100.067C107.64 100.047 107.572 100.035 107.498 100.03C107.424 100.025 107.345 100.022 107.262 100.022C107.131 100.022 107.006 100.019 106.886 100.011C106.768 100.002 106.662 99.9595 106.569 99.8857C106.551 99.812 106.554 99.7566 106.576 99.7198C106.598 99.6829 106.624 99.646 106.654 99.6092C106.68 99.5824 106.702 99.5529 106.72 99.5207C106.739 99.4866 106.75 99.446 106.75 99.399C107.034 99.399 107.34 99.3862 107.668 99.3585C107.997 99.3318 108.318 99.3179 108.634 99.3179Z" fill="#222222"/>
<path d="M2.60111 99.3032C2.84906 99.3134 3.0814 99.3503 3.29802 99.4139C3.51646 99.4784 3.70456 99.6075 3.86218 99.801C3.69442 99.8849 3.50633 99.9632 3.29802 100.037C3.09153 100.111 2.92277 100.158 2.7928 100.177C2.86654 100.5 2.94767 100.825 3.03616 101.154C3.12465 101.481 3.21874 101.811 3.32014 102.142C3.57088 102.946 3.84374 103.756 4.13872 104.569C4.43369 105.38 4.6825 106.198 4.88713 107.021C5.20884 106.245 5.53335 105.456 5.86058 104.657C6.18967 103.859 6.4838 103.026 6.74191 102.157C6.92628 101.538 7.07832 100.91 7.19908 100.273C7.13455 100.172 7.03779 100.101 6.90784 100.059C6.77972 100.018 6.64608 99.9779 6.50598 99.941C6.36771 99.9042 6.25236 99.8488 6.15926 99.7751C6.17863 99.6378 6.26715 99.5345 6.42474 99.4654C6.58146 99.3944 6.77515 99.3501 7.00377 99.3326C7.23419 99.3133 7.47291 99.3087 7.71899 99.3179C7.9642 99.3281 8.18371 99.342 8.37545 99.3585C8.54228 99.3788 8.69718 99.4231 8.84005 99.4913C8.98475 99.5604 9.0889 99.6416 9.15342 99.7347C8.94879 99.9365 8.71557 100.111 8.45288 100.258C8.18925 100.406 7.96609 100.596 7.78173 100.826C7.72458 101.057 7.6684 101.285 7.61218 101.508C7.55779 101.729 7.49879 101.946 7.43518 102.157C7.14942 103.145 6.82861 104.102 6.47279 105.026C6.11606 105.948 5.79524 106.927 5.51041 107.961C5.41638 108.055 5.33894 108.159 5.2781 108.274C5.21912 108.391 5.14903 108.498 5.06793 108.599C4.96468 108.655 4.86599 108.674 4.77288 108.654C4.68163 108.637 4.59399 108.614 4.51103 108.584C4.43735 108.567 4.3867 108.553 4.35996 108.544C3.96174 107.555 3.59841 106.507 3.27209 105.398C2.94484 104.29 2.60561 103.204 2.25439 102.142C2.13364 101.774 2.00825 101.415 1.87828 101.066C1.75016 100.715 1.61284 100.367 1.46536 100.022C1.38148 99.9955 1.30035 99.9871 1.222 99.9963C1.14272 100.006 1.06707 100.015 0.993328 100.022C0.909468 100.043 0.831124 100.054 0.757398 100.059C0.683657 100.065 0.6099 100.052 0.536159 100.022C0.471631 99.9218 0.453194 99.8322 0.480849 99.753C0.507576 99.6746 0.539916 99.5982 0.576777 99.5245C0.596135 99.4977 0.611749 99.4728 0.624654 99.4507C0.6394 99.4267 0.651331 99.4009 0.66147 99.3732C0.845815 99.3834 1.03022 99.3834 1.21457 99.3732C1.39891 99.364 1.58332 99.3538 1.76766 99.3437C1.90778 99.3271 2.04894 99.316 2.19182 99.3105C2.33376 99.3059 2.47023 99.3032 2.60111 99.3032Z" fill="#222222"/>
<path fill-rule="evenodd" clip-rule="evenodd" d="M53.5103 99.0746C53.8615 99.0801 54.2164 99.117 54.5758 99.1852C54.9372 99.2543 55.2626 99.365 55.5529 99.517C55.8451 99.6701 56.0516 99.8711 56.1724 100.122C56.2258 100.132 56.2738 100.132 56.3162 100.122C56.3577 100.113 56.3974 100.107 56.4343 100.107C56.4711 100.098 56.508 100.091 56.5449 100.089C56.5817 100.084 56.6279 100.095 56.685 100.122C56.6749 100.232 56.6721 100.337 56.6776 100.435C56.6822 100.531 56.6978 100.616 56.7255 100.69C56.8896 100.781 57.0141 100.913 57.098 101.084C57.1809 101.254 57.2501 101.433 57.3045 101.622C57.3607 101.812 57.4206 101.99 57.4851 102.157L57.5958 102.378C57.605 102.489 57.6152 102.599 57.6253 102.707C57.6345 102.813 57.6446 102.92 57.6547 103.031C57.6713 103.28 57.6889 103.529 57.7064 103.78C57.7257 104.028 57.7266 104.258 57.71 104.469C57.6897 104.814 57.6225 105.125 57.5073 105.402C57.3911 105.678 57.2657 105.947 57.1312 106.21C56.9984 106.473 56.8897 106.762 56.8067 107.076C56.7155 107.057 56.6159 107.112 56.5081 107.242C56.402 107.37 56.3088 107.504 56.2277 107.644C55.8387 107.849 55.4276 108.061 54.9926 108.282C54.5593 108.503 54.0836 108.614 53.5656 108.614C53.0862 108.614 52.6446 108.51 52.2418 108.304C51.8408 108.096 51.4508 107.898 51.0728 107.714C51.0728 107.584 51.0231 107.5 50.9254 107.463C50.8295 107.426 50.7493 107.377 50.6857 107.312C50.3243 106.905 50.023 106.426 49.7824 105.878C49.5436 105.327 49.4062 104.707 49.3693 104.016C49.3416 103.369 49.4108 102.745 49.5758 102.142C49.7233 101.607 49.9418 101.127 50.2321 100.704C50.5243 100.279 50.8831 99.9696 51.3089 99.7751C51.4564 99.6184 51.6278 99.4728 51.825 99.3401C52.0242 99.2055 52.2675 99.1742 52.5551 99.2479L52.6104 99.152C52.8584 99.0958 53.1581 99.07 53.5103 99.0746ZM54.7492 99.8047C54.422 99.7217 54.0725 99.6904 53.7019 99.7125C53.3332 99.7346 52.9774 99.8037 52.6364 99.9189C52.2944 100.035 52.0039 100.176 51.7661 100.343C51.5523 100.574 51.3687 100.844 51.2166 101.154C51.0636 101.464 50.9419 101.794 50.8516 102.142C50.7871 102.393 50.7354 102.653 50.6967 102.92C50.6599 103.189 50.6414 103.457 50.6414 103.724C50.634 104.314 50.706 104.893 50.859 105.461C51.0111 106.029 51.2434 106.516 51.5559 106.921C51.8067 107.246 52.109 107.5 52.463 107.684C52.8188 107.869 53.2236 107.953 53.6762 107.935C54.2219 107.916 54.692 107.745 55.0883 107.423C55.4866 107.098 55.801 106.683 56.0324 106.176C56.2997 105.611 56.4656 104.976 56.5302 104.27C56.5965 103.565 56.554 102.861 56.4047 102.157C56.3973 102.111 56.3882 102.069 56.3789 102.032C56.3688 101.995 56.3586 101.958 56.3494 101.921C56.3217 101.774 56.259 101.589 56.1613 101.368C56.0655 101.147 55.9622 100.933 55.8516 100.726C55.741 100.518 55.6433 100.372 55.5604 100.288C55.3483 100.047 55.0783 99.8858 54.7492 99.8047Z" fill="#222222"/>
<path fill-rule="evenodd" clip-rule="evenodd" d="M24.57 99.3032C25.088 99.2765 25.6559 99.2681 26.2735 99.2773C26.893 99.2847 27.5024 99.3244 28.1025 99.3954C28.7045 99.4645 29.24 99.5797 29.7101 99.7419C30.1821 99.9023 30.5233 100.125 30.7353 100.413C30.9123 100.644 31.0745 100.905 31.222 101.195C31.3695 101.485 31.4929 101.806 31.5943 102.157C31.6975 102.519 31.7713 102.905 31.8155 103.315C31.8616 103.726 31.8616 104.162 31.8155 104.624C31.7612 105.177 31.6165 105.677 31.3805 106.121C31.1445 106.563 30.8532 106.947 30.5066 107.271C30.16 107.594 29.7932 107.847 29.4078 108.031C28.9451 108.189 28.4463 108.284 27.9107 108.315C27.3742 108.347 26.8341 108.363 26.2884 108.363C25.809 108.363 25.3407 108.376 24.8835 108.4C24.4263 108.422 24.0077 108.488 23.6297 108.599C23.6463 108.441 23.6869 108.304 23.7514 108.186C23.8178 108.066 23.8925 107.959 23.9764 107.865C24.04 107.846 24.099 107.836 24.1534 107.836H24.323C24.3764 107.846 24.4336 107.85 24.4925 107.85C24.5534 107.85 24.6217 107.838 24.6955 107.81C24.7148 107.321 24.7222 106.792 24.7176 106.224C24.712 105.656 24.7047 105.068 24.6955 104.458C24.6881 104.08 24.6816 103.697 24.677 103.308C24.6714 102.92 24.6695 102.531 24.6695 102.142C24.6695 101.801 24.6714 101.462 24.677 101.125C24.6816 100.788 24.6881 100.459 24.6955 100.137C24.6042 100.09 24.5073 100.065 24.404 100.059C24.3027 100.054 24.2022 100.057 24.1017 100.067C24.0077 100.067 23.9118 100.065 23.8141 100.059C23.7183 100.054 23.6334 100.029 23.5597 99.9816C23.5791 99.7143 23.6897 99.5373 23.8916 99.4507C24.0953 99.3622 24.3211 99.3134 24.57 99.3032ZM27.9034 100.059C27.271 99.9614 26.5768 99.9724 25.82 100.092C25.82 100.408 25.821 100.736 25.8238 101.077C25.8284 101.419 25.831 101.774 25.831 102.142C25.8402 102.956 25.8459 103.793 25.8459 104.653C25.8459 105.512 25.8366 106.324 25.82 107.091C25.82 107.192 25.8126 107.305 25.7978 107.43C25.7831 107.553 25.7536 107.666 25.7093 107.769C25.8836 107.76 26.0505 107.755 26.2109 107.755H26.6902C26.9944 107.755 27.2857 107.75 27.5641 107.74C27.8416 107.73 28.0997 107.698 28.3385 107.644C28.5053 107.598 28.7109 107.529 28.9543 107.437C29.1995 107.344 29.3876 107.248 29.5185 107.146C29.7295 106.979 29.9092 106.722 30.0567 106.375C30.2042 106.029 30.3167 105.637 30.396 105.199C30.4743 104.76 30.5194 104.31 30.5324 103.85C30.5471 103.388 30.5269 102.957 30.4734 102.559C30.4633 102.485 30.4513 102.417 30.4366 102.353C30.4237 102.286 30.4079 102.222 30.3886 102.157C30.2337 101.53 29.9387 101.049 29.5036 100.712C29.0685 100.373 28.5348 100.155 27.9034 100.059Z" fill="#222222"/>
<path fill-rule="evenodd" clip-rule="evenodd" d="M70.1749 99.3032C70.693 99.2765 71.2609 99.2681 71.8785 99.2773C72.4979 99.2847 73.1074 99.3244 73.7075 99.3954C74.3094 99.4645 74.845 99.5797 75.3151 99.7419C75.7871 99.9023 76.1282 100.125 76.3402 100.413C76.5172 100.644 76.6795 100.905 76.8269 101.195C76.9744 101.485 77.0979 101.806 77.1993 102.157C77.3025 102.519 77.3762 102.905 77.4205 103.315C77.4666 103.726 77.4666 104.162 77.4205 104.624C77.3661 105.177 77.2214 105.677 76.9854 106.121C76.7495 106.563 76.4582 106.947 76.1116 107.271C75.765 107.594 75.3981 107.847 75.0128 108.031C74.55 108.189 74.0512 108.284 73.5156 108.315C72.9792 108.347 72.439 108.363 71.8933 108.363C71.414 108.363 70.9457 108.376 70.4885 108.4C70.0312 108.422 69.6126 108.488 69.2347 108.599C69.2512 108.441 69.2918 108.304 69.3563 108.186C69.4227 108.066 69.4975 107.959 69.5814 107.865C69.645 107.846 69.704 107.836 69.7584 107.836H69.9279C69.9814 107.846 70.0385 107.85 70.0975 107.85C70.1583 107.85 70.2267 107.838 70.3004 107.81C70.3198 107.321 70.3271 106.792 70.3225 106.224C70.317 105.656 70.3096 105.068 70.3004 104.458C70.293 104.08 70.2865 103.697 70.2819 103.308C70.2764 102.92 70.2745 102.531 70.2745 102.142C70.2745 101.801 70.2764 101.462 70.2819 101.125C70.2865 100.788 70.293 100.459 70.3004 100.137C70.2091 100.09 70.1122 100.065 70.009 100.059C69.9076 100.054 69.8071 100.057 69.7067 100.067C69.6127 100.067 69.5168 100.065 69.4191 100.059C69.3232 100.054 69.2384 100.029 69.1646 99.9816C69.184 99.7143 69.2946 99.5373 69.4965 99.4507C69.7002 99.3622 69.926 99.3134 70.1749 99.3032ZM73.5084 100.059C72.876 99.9614 72.1817 99.9724 71.4249 100.092C71.4249 100.408 71.426 100.736 71.4287 101.077C71.4333 101.419 71.436 101.774 71.436 102.142C71.4452 102.956 71.4508 103.793 71.4508 104.653C71.4508 105.512 71.4415 106.324 71.4249 107.091C71.4249 107.192 71.4175 107.305 71.4028 107.43C71.388 107.553 71.3585 107.666 71.3143 107.769C71.4885 107.76 71.6555 107.755 71.8159 107.755H72.2952C72.5994 107.755 72.8907 107.75 73.1691 107.74C73.4465 107.73 73.7047 107.698 73.9434 107.644C74.1103 107.598 74.3159 107.529 74.5593 107.437C74.8044 107.344 74.9925 107.248 75.1234 107.146C75.3345 106.979 75.5142 106.722 75.6616 106.375C75.8091 106.029 75.9217 105.637 76.0009 105.199C76.0793 104.76 76.1244 104.31 76.1373 103.85C76.1521 103.388 76.1318 102.957 76.0784 102.559C76.0682 102.485 76.0563 102.417 76.0416 102.353C76.0286 102.286 76.0129 102.222 75.9935 102.157C75.8386 101.53 75.5436 101.049 75.1085 100.712C74.6735 100.373 74.1398 100.155 73.5084 100.059Z" fill="#222222"/>
<path d="M119.716 99.1373C120.011 99.1281 120.308 99.1539 120.608 99.2147C120.908 99.2737 121.188 99.3723 121.449 99.5096C121.512 99.4561 121.582 99.4359 121.655 99.4507C121.729 99.4636 121.803 99.4792 121.877 99.4985C121.933 99.5161 121.984 99.5318 122.028 99.5466C122.074 99.5613 122.121 99.564 122.168 99.5539C122.224 99.5446 122.279 99.5262 122.334 99.4985C122.39 99.4691 122.441 99.4415 122.485 99.4139C122.559 99.3678 122.63 99.3309 122.699 99.3032C122.77 99.2765 122.847 99.2811 122.931 99.3179C122.884 99.4755 122.865 99.6461 122.872 99.8304C122.881 100.015 122.896 100.205 122.916 100.398C122.926 100.492 122.935 100.585 122.942 100.679C122.951 100.77 122.957 100.856 122.957 100.937C122.966 101.15 122.948 101.346 122.902 101.523C122.855 101.698 122.752 101.835 122.596 101.936C122.441 101.862 122.35 101.762 122.326 101.634C122.304 101.504 122.293 101.364 122.293 101.217C122.293 101.134 122.288 101.047 122.278 100.959C122.268 100.87 122.25 100.785 122.223 100.704C122.102 100.353 121.827 100.099 121.397 99.941C120.97 99.7843 120.51 99.7153 120.022 99.7347C119.68 99.742 119.342 99.7881 119.008 99.871C118.676 99.9549 118.404 100.076 118.193 100.232C117.905 100.437 117.669 100.704 117.485 101.036C117.301 101.368 117.161 101.737 117.068 102.142C117.024 102.374 116.989 102.613 116.965 102.858C116.943 103.101 116.932 103.348 116.932 103.599C116.941 104.162 117.01 104.719 117.138 105.269C117.268 105.818 117.455 106.302 117.699 106.722C117.944 107.142 118.238 107.45 118.58 107.644C118.931 107.772 119.326 107.848 119.764 107.872C120.203 107.895 120.619 107.856 121.01 107.755C121.403 107.654 121.701 107.488 121.906 107.257C121.877 107.034 121.862 106.792 121.862 106.534C121.862 106.276 121.871 106.018 121.891 105.76C121.891 105.603 121.893 105.445 121.899 105.288C121.903 105.131 121.906 104.978 121.906 104.83C121.822 104.747 121.712 104.705 121.578 104.705C121.445 104.705 121.318 104.715 121.198 104.735C121.097 104.752 121.005 104.76 120.922 104.76C120.838 104.76 120.772 104.742 120.726 104.705C120.679 104.364 120.739 104.169 120.907 104.119C121.074 104.067 121.318 104.052 121.641 104.071C121.751 104.071 121.866 104.074 121.987 104.078C122.107 104.081 122.232 104.078 122.363 104.071C122.417 104.071 122.471 104.069 122.526 104.064C122.582 104.059 122.638 104.052 122.695 104.041C122.916 104.025 123.138 104.016 123.359 104.016C123.58 104.016 123.766 104.051 123.919 104.119C124.071 104.188 124.166 104.32 124.203 104.513C124.166 104.634 124.083 104.704 123.953 104.724C123.824 104.741 123.681 104.749 123.525 104.749C123.46 104.749 123.394 104.752 123.326 104.757C123.257 104.76 123.194 104.766 123.138 104.775C123.054 104.97 123.005 105.203 122.99 105.476C122.977 105.749 122.976 106.033 122.986 106.328C122.994 106.613 122.992 106.899 122.983 107.187C122.975 107.472 122.929 107.727 122.846 107.95C122.726 108.031 122.605 108.074 122.485 108.079C122.367 108.085 122.247 108.037 122.127 107.935C121.849 108.12 121.512 108.265 121.113 108.37C120.717 108.475 120.302 108.536 119.867 108.551C119.434 108.566 119.012 108.52 118.599 108.414C118.187 108.307 117.826 108.132 117.515 107.891C117.431 107.827 117.358 107.738 117.297 107.622C117.238 107.507 117.166 107.407 117.083 107.323C116.992 107.223 116.892 107.141 116.784 107.076C116.678 107.012 116.598 106.942 116.545 106.866C116.266 106.488 116.06 106.051 115.925 105.557C115.792 105.063 115.726 104.553 115.726 104.027C115.726 103.705 115.749 103.385 115.796 103.068C115.842 102.749 115.907 102.44 115.988 102.142C116.145 101.599 116.369 101.106 116.659 100.664C116.951 100.22 117.301 99.8812 117.706 99.6498C117.974 99.5023 118.281 99.3834 118.628 99.2922C118.975 99.1991 119.337 99.1474 119.716 99.1373Z" fill="#222222"/>
<path fill-rule="evenodd" clip-rule="evenodd" d="M158.637 99.3401C159.14 99.3428 159.607 99.3879 160.034 99.4764C160.464 99.5649 160.827 99.7254 161.122 99.9559C161.373 100.15 161.562 100.405 161.69 100.719C161.82 101.032 161.861 101.433 161.815 101.921C161.805 101.958 161.788 101.995 161.764 102.032C161.742 102.069 161.721 102.111 161.705 102.157C161.648 102.268 161.596 102.381 161.55 102.496C161.506 102.612 161.47 102.735 161.443 102.865C161.229 102.946 161.048 103.063 160.901 103.215C160.753 103.368 160.596 103.51 160.429 103.64C160.264 103.77 160.043 103.849 159.765 103.875C160.153 104.107 160.474 104.409 160.728 104.783C160.98 105.157 161.201 105.561 161.391 105.996C161.58 106.429 161.768 106.868 161.956 107.312C162 107.34 162.049 107.366 162.103 107.39C162.159 107.412 162.215 107.436 162.273 107.463C162.457 107.537 162.628 107.632 162.785 107.747C162.942 107.863 162.979 108.055 162.896 108.322C162.591 108.406 162.307 108.432 162.044 108.4C161.78 108.366 161.515 108.317 161.248 108.252C161.063 108.031 160.906 107.762 160.776 107.445C160.647 107.126 160.527 106.788 160.414 106.431C160.304 106.075 160.174 105.74 160.027 105.428C159.879 105.103 159.701 104.836 159.492 104.624C159.286 104.41 159.017 104.281 158.685 104.237C158.547 104.218 158.403 104.207 158.253 104.207C158.106 104.207 157.963 104.213 157.826 104.222C157.715 104.232 157.613 104.237 157.52 104.237C157.428 104.237 157.346 104.232 157.273 104.222C157.252 104.471 157.245 104.72 157.25 104.971C157.255 105.219 157.266 105.468 157.284 105.719C157.293 105.995 157.303 106.274 157.313 106.556C157.322 106.839 157.309 107.118 157.273 107.393C157.336 107.533 157.447 107.625 157.604 107.666C157.761 107.706 157.92 107.746 158.08 107.788C158.242 107.83 158.36 107.911 158.434 108.031C158.323 108.179 158.139 108.269 157.881 108.3C157.623 108.332 157.346 108.348 157.051 108.348H156.579C156.329 108.341 156.097 108.34 155.886 108.344C155.674 108.347 155.504 108.372 155.374 108.418C155.3 108.225 155.3 108.079 155.374 107.983C155.447 107.885 155.544 107.804 155.665 107.74C155.785 107.676 155.906 107.617 156.03 107.563C156.155 107.506 156.241 107.423 156.288 107.312C156.268 106.398 156.251 105.526 156.237 104.694C156.224 103.861 156.209 103.011 156.192 102.142L156.148 100.107C156.074 100.08 155.998 100.067 155.919 100.067H155.691C155.599 100.077 155.51 100.079 155.422 100.074C155.333 100.069 155.252 100.033 155.178 99.967C155.187 99.9227 155.186 99.8876 155.171 99.86C155.158 99.8305 155.142 99.8027 155.123 99.7751C155.116 99.7484 155.106 99.7188 155.097 99.6866C155.087 99.6525 155.092 99.6166 155.112 99.5798C155.296 99.4793 155.505 99.423 155.739 99.4101C155.975 99.3953 156.223 99.3916 156.484 99.399H156.786C156.889 99.399 156.991 99.3953 157.092 99.3879C157.617 99.3511 158.133 99.3354 158.637 99.3401ZM159.105 99.9706C158.741 99.9512 158.347 99.9467 157.922 99.9559C157.83 99.9559 157.738 99.9585 157.645 99.9631C157.554 99.9659 157.457 99.967 157.354 99.967C157.27 100.051 157.228 100.168 157.228 100.317C157.228 100.465 157.233 100.621 157.243 100.786C157.252 100.85 157.26 100.915 157.265 100.981C157.27 101.045 157.273 101.109 157.273 101.173C157.273 101.32 157.267 101.478 157.258 101.645C157.248 101.812 157.238 101.978 157.228 102.142C157.221 102.384 157.217 102.632 157.217 102.887C157.217 103.141 157.236 103.392 157.273 103.64C157.715 103.713 158.17 103.713 158.641 103.64C159.113 103.566 159.497 103.414 159.795 103.182C160.143 102.905 160.374 102.563 160.484 102.157C160.53 101.973 160.554 101.794 160.554 101.619C160.554 101.405 160.522 101.183 160.458 100.951C160.394 100.721 160.293 100.49 160.152 100.258C159.821 100.084 159.471 99.9881 159.105 99.9706Z" fill="#222222"/>
<path d="M136.269 99.2626C136.51 99.2534 136.749 99.2627 136.988 99.2922C137.229 99.3198 137.436 99.3613 137.611 99.4175C137.788 99.4719 137.895 99.5355 137.932 99.6092C137.922 99.8037 137.827 99.919 137.648 99.9559C137.468 99.9928 137.272 100.011 137.058 100.011C136.984 100.029 136.936 100.073 136.914 100.144C136.892 100.213 136.871 100.287 136.852 100.365C136.834 100.442 136.779 100.508 136.686 100.564C136.712 100.813 136.734 101.071 136.748 101.339C136.763 101.607 136.774 101.88 136.781 102.157C136.791 102.472 136.796 102.794 136.796 103.123V104.111C136.806 104.822 136.817 105.522 136.83 106.21C136.844 106.898 136.893 107.529 136.977 108.101C136.876 108.249 136.719 108.333 136.505 108.352C136.293 108.369 136.145 108.328 136.062 108.226C135.841 107.959 135.631 107.659 135.432 107.327C135.233 106.993 134.999 106.669 134.731 106.353C134.232 105.763 133.752 105.09 133.29 104.333C132.83 103.576 132.369 102.846 131.907 102.142C131.732 101.858 131.551 101.586 131.365 101.328C131.181 101.068 130.996 100.822 130.812 100.594C130.802 100.869 130.792 101.132 130.782 101.383C130.775 101.632 130.771 101.884 130.771 102.142C130.771 102.484 130.775 102.838 130.782 103.204C130.792 103.568 130.802 103.971 130.812 104.414C130.812 104.582 130.809 104.756 130.804 104.937C130.799 105.117 130.793 105.294 130.786 105.468C130.766 105.837 130.754 106.187 130.749 106.516C130.744 106.843 130.783 107.112 130.867 107.323C130.913 107.454 130.997 107.552 131.118 107.618C131.238 107.683 131.362 107.74 131.49 107.791C131.62 107.841 131.717 107.912 131.781 108.005C131.745 108.116 131.668 108.19 131.553 108.226C131.437 108.263 131.352 108.322 131.299 108.403C131.131 108.34 130.956 108.31 130.775 108.315C130.595 108.32 130.418 108.336 130.244 108.363C130.049 108.383 129.864 108.392 129.687 108.392C129.512 108.392 129.352 108.351 129.204 108.267C129.15 108.193 129.129 108.132 129.141 108.083C129.156 108.031 129.176 107.982 129.204 107.935C129.223 107.898 129.242 107.864 129.259 107.832C129.279 107.798 129.289 107.758 129.289 107.714C129.409 107.668 129.533 107.628 129.661 107.596C129.791 107.565 129.92 107.53 130.049 107.493C130.132 106.78 130.167 106.036 130.152 105.262C130.139 104.486 130.109 103.686 130.063 102.865C130.063 102.745 130.06 102.625 130.056 102.504C130.05 102.384 130.045 102.263 130.038 102.142C130.027 101.794 130.015 101.445 130.001 101.099C129.988 100.752 129.977 100.404 129.967 100.052C129.857 100.089 129.741 100.103 129.621 100.096C129.5 100.087 129.398 100.058 129.315 100.011C129.223 99.9448 129.168 99.8563 129.149 99.7457C129.131 99.6351 129.187 99.506 129.315 99.3585C129.435 99.3687 129.555 99.3732 129.676 99.3732C129.796 99.3732 129.917 99.3687 130.038 99.3585C130.349 99.3585 130.655 99.3686 130.956 99.3879C131.258 99.4054 131.543 99.4746 131.811 99.5945C131.811 99.6415 131.798 99.6747 131.774 99.694C131.752 99.7115 131.727 99.7291 131.7 99.7457C131.624 99.7752 131.586 99.8121 131.586 99.8563C131.846 100.235 132.108 100.616 132.372 100.999C132.634 101.383 132.895 101.764 133.153 102.142C133.652 102.856 134.153 103.568 134.654 104.277C135.157 104.988 135.655 105.69 136.147 106.383C136.127 105.673 136.118 104.967 136.118 104.266C136.118 103.564 136.109 102.861 136.092 102.157C136.072 101.464 136.03 100.773 135.967 100.081C135.9 100.052 135.835 100.033 135.771 100.026C135.707 100.017 135.642 100.011 135.576 100.011C135.458 99.9918 135.352 99.9687 135.259 99.941C135.167 99.9143 135.117 99.8405 135.108 99.7198C135.097 99.5631 135.211 99.4498 135.447 99.3807C135.683 99.3125 135.957 99.2728 136.269 99.2626Z" fill="#222222"/>
<path d="M43.05 99.3881C43.3468 99.3881 43.6067 99.4673 43.828 99.624C43.8178 99.7153 43.8152 99.8231 43.8207 99.9485C43.8253 100.074 43.828 100.206 43.828 100.343C43.8445 100.601 43.8511 100.865 43.8464 101.132C43.8437 101.4 43.8059 101.613 43.7322 101.77C43.5644 101.807 43.4417 101.787 43.3634 101.707C43.2841 101.629 43.2316 101.521 43.2049 101.383C43.168 101.199 43.1422 100.988 43.1274 100.752C43.1145 100.516 43.0666 100.339 42.9836 100.218H42.6149C42.4822 100.218 42.3421 100.213 42.1946 100.203H40.7859C40.2918 100.203 39.8918 100.221 39.5876 100.258C39.5968 100.379 39.6023 100.531 39.6023 100.716C39.6023 100.9 39.5968 101.108 39.5876 101.339V102.143C39.5876 102.364 39.5932 102.587 39.6061 102.81C39.6208 103.031 39.6373 103.243 39.6576 103.444C40.019 103.407 40.3896 103.385 40.7712 103.378C41.1547 103.368 41.5317 103.354 41.9032 103.333C42.0212 103.28 42.1079 103.195 42.165 103.079C42.2212 102.964 42.272 102.839 42.3163 102.707C42.3624 102.572 42.4232 102.458 42.4969 102.364C42.5605 102.327 42.6158 102.316 42.6628 102.331C42.7089 102.345 42.7605 102.366 42.8177 102.393C42.8343 102.403 42.8564 102.415 42.8841 102.43C42.9135 102.443 42.9468 102.454 42.9836 102.463C42.9265 102.665 42.8933 102.897 42.8841 103.156C42.8767 103.415 42.8767 103.678 42.8841 103.946C42.8841 104.167 42.8786 104.384 42.8694 104.598C42.862 104.81 42.8444 104.995 42.8177 105.151C42.6038 105.169 42.4646 105.116 42.401 104.993C42.3365 104.867 42.2868 104.726 42.2499 104.569C42.2296 104.502 42.2101 104.438 42.1908 104.373C42.1733 104.31 42.1511 104.25 42.1244 104.193C41.6985 104.129 41.2552 104.093 40.7933 104.086C40.3306 104.076 39.9287 104.148 39.5876 104.303C39.607 104.812 39.6208 105.332 39.6282 105.863C39.6374 106.394 39.6245 106.951 39.5876 107.533C39.9287 107.551 40.3029 107.565 40.7085 107.574C41.1159 107.584 41.5235 107.573 41.9291 107.541C42.3347 107.509 42.7043 107.451 43.0389 107.367C43.1394 107.19 43.2086 106.989 43.2455 106.763C43.2823 106.537 43.3348 106.323 43.404 106.121C43.4722 105.917 43.6004 105.778 43.7875 105.704C43.9248 105.983 43.9865 106.29 43.9718 106.626C43.9589 106.964 43.9294 107.279 43.8833 107.574C43.8731 107.675 43.8612 107.772 43.8464 107.865C43.8335 107.959 43.828 108.046 43.828 108.127L43.7322 108.227C43.2694 108.263 42.8001 108.285 42.3235 108.289C41.8488 108.292 41.3704 108.289 40.8893 108.282C40.3629 108.282 39.8402 108.285 39.3221 108.289C38.8059 108.292 38.3026 108.321 37.8141 108.378C37.6666 108.277 37.6011 108.179 37.6186 108.083C37.6379 107.985 37.6666 107.894 37.7034 107.81C37.7495 107.727 37.7734 107.672 37.7734 107.644C37.8297 107.607 37.896 107.589 37.9726 107.589H38.2159C38.262 107.589 38.3099 107.591 38.3597 107.596C38.4113 107.602 38.4602 107.599 38.5072 107.589C38.5532 106.916 38.5773 106.205 38.5773 105.457C38.5773 104.708 38.5717 103.978 38.5625 103.267C38.5625 103.073 38.5598 102.884 38.5552 102.699C38.5497 102.513 38.5478 102.327 38.5478 102.143C38.5404 101.794 38.5376 101.462 38.5403 101.147C38.545 100.833 38.5523 100.537 38.5625 100.258C38.498 100.242 38.4315 100.231 38.3634 100.225C38.2942 100.22 38.227 100.218 38.1606 100.218C38.0398 100.218 37.9264 100.207 37.8213 100.185C37.7153 100.161 37.6259 100.098 37.5522 99.9965C37.5614 99.9698 37.5706 99.9329 37.578 99.8859C37.5973 99.7753 37.6278 99.6673 37.6703 99.5613C37.7117 99.4535 37.7966 99.4046 37.9247 99.4139C38.2759 99.424 38.6668 99.4359 39.0972 99.4507C39.5268 99.4636 39.9535 99.4692 40.3766 99.4692H41.4718C41.5824 99.4692 41.693 99.4655 41.8036 99.4581C41.9142 99.4489 42.0259 99.4387 42.1393 99.4285C42.4508 99.4018 42.755 99.3881 43.05 99.3881Z" fill="#222222"/>
<path d="M88.6549 99.3881C88.9518 99.3881 89.2117 99.4673 89.4329 99.624C89.4228 99.7153 89.4201 99.8231 89.4256 99.9485C89.4303 100.074 89.4329 100.206 89.4329 100.343C89.4495 100.601 89.456 100.865 89.4514 101.132C89.4486 101.4 89.4109 101.613 89.3371 101.77C89.1694 101.807 89.0467 101.787 88.9683 101.707C88.8891 101.629 88.8365 101.521 88.8098 101.383C88.7729 101.199 88.7471 100.988 88.7324 100.752C88.7195 100.516 88.6715 100.339 88.5886 100.218H88.2199C88.0872 100.218 87.947 100.213 87.7995 100.203H86.3909C85.8968 100.203 85.4967 100.221 85.1925 100.258C85.2018 100.379 85.2072 100.531 85.2072 100.716C85.2072 100.9 85.2018 101.108 85.1925 101.339V102.143C85.1925 102.364 85.1981 102.587 85.211 102.81C85.2258 103.031 85.2423 103.243 85.2625 103.444C85.6239 103.407 85.9945 103.385 86.3762 103.378C86.7596 103.368 87.1366 103.354 87.5081 103.333C87.6261 103.28 87.7128 103.195 87.77 103.079C87.8262 102.964 87.877 102.839 87.9212 102.707C87.9673 102.572 88.0281 102.458 88.1018 102.364C88.1654 102.327 88.2208 102.316 88.2678 102.331C88.3138 102.345 88.3655 102.366 88.4226 102.393C88.4392 102.403 88.4614 102.415 88.489 102.43C88.5185 102.443 88.5517 102.454 88.5886 102.463C88.5314 102.665 88.4982 102.897 88.489 103.156C88.4816 103.415 88.4816 103.678 88.489 103.946C88.489 104.167 88.4835 104.384 88.4743 104.598C88.4669 104.81 88.4494 104.995 88.4226 105.151C88.2088 105.169 88.0695 105.116 88.0059 104.993C87.9414 104.867 87.8917 104.726 87.8548 104.569C87.8346 104.502 87.8151 104.438 87.7957 104.373C87.7782 104.31 87.7561 104.25 87.7294 104.193C87.3035 104.129 86.8601 104.093 86.3983 104.086C85.9355 104.076 85.5336 104.148 85.1925 104.303C85.2119 104.812 85.2258 105.332 85.2332 105.863C85.2424 106.394 85.2294 106.951 85.1925 107.533C85.5336 107.551 85.9079 107.565 86.3134 107.574C86.7209 107.584 87.1284 107.573 87.534 107.541C87.9396 107.509 88.3093 107.451 88.6439 107.367C88.7444 107.19 88.8135 106.989 88.8504 106.763C88.8873 106.537 88.9398 106.323 89.0089 106.121C89.0771 105.917 89.2053 105.778 89.3925 105.704C89.5298 105.983 89.5915 106.29 89.5767 106.626C89.5638 106.964 89.5343 107.279 89.4882 107.574C89.4781 107.675 89.4661 107.772 89.4514 107.865C89.4385 107.959 89.4329 108.046 89.4329 108.127L89.3371 108.227C88.8744 108.263 88.4051 108.285 87.9285 108.289C87.4538 108.292 86.9754 108.289 86.4942 108.282C85.9679 108.282 85.4451 108.285 84.9271 108.289C84.4109 108.292 83.9076 108.321 83.419 108.378C83.2716 108.277 83.2061 108.179 83.2235 108.083C83.2429 107.985 83.2715 107.894 83.3084 107.81C83.3545 107.727 83.3784 107.672 83.3784 107.644C83.4346 107.607 83.501 107.589 83.5775 107.589H83.8209C83.867 107.589 83.9149 107.591 83.9647 107.596C84.0163 107.602 84.0651 107.599 84.1121 107.589C84.1582 106.916 84.1823 106.205 84.1823 105.457C84.1823 104.708 84.1766 103.978 84.1674 103.267C84.1674 103.073 84.1648 102.884 84.1602 102.699C84.1546 102.513 84.1527 102.327 84.1527 102.143C84.1453 101.794 84.1425 101.462 84.1453 101.147C84.1499 100.833 84.1573 100.537 84.1674 100.258C84.1029 100.242 84.0365 100.231 83.9683 100.225C83.8992 100.22 83.8319 100.218 83.7656 100.218C83.6448 100.218 83.5314 100.207 83.4263 100.185C83.3203 100.161 83.2309 100.098 83.1571 99.9965C83.1664 99.9698 83.1755 99.9329 83.1829 99.8859C83.2023 99.7753 83.2328 99.6673 83.2752 99.5613C83.3167 99.4535 83.4015 99.4046 83.5296 99.4139C83.8808 99.424 84.2717 99.4359 84.7022 99.4507C85.1317 99.4636 85.5585 99.4692 85.9816 99.4692H87.0767C87.1873 99.4692 87.298 99.4655 87.4086 99.4581C87.5192 99.4489 87.6308 99.4387 87.7442 99.4285C88.0558 99.4018 88.36 99.3881 88.6549 99.3881Z" fill="#222222"/>
<path d="M148.667 99.3881C148.964 99.3881 149.224 99.4673 149.445 99.624C149.435 99.7153 149.432 99.8231 149.438 99.9485C149.442 100.074 149.445 100.206 149.445 100.343C149.462 100.601 149.468 100.865 149.463 101.132C149.461 101.4 149.423 101.613 149.349 101.77C149.181 101.807 149.059 101.787 148.98 101.707C148.901 101.629 148.849 101.521 148.822 101.383C148.785 101.199 148.759 100.988 148.744 100.752C148.732 100.516 148.684 100.339 148.601 100.218H148.232C148.099 100.218 147.959 100.213 147.812 100.203H146.403C145.909 100.203 145.509 100.221 145.205 100.258C145.214 100.379 145.219 100.531 145.219 100.716C145.219 100.9 145.214 101.108 145.205 101.339V102.143C145.205 102.364 145.21 102.587 145.223 102.81C145.238 103.031 145.254 103.243 145.275 103.444C145.636 103.407 146.007 103.385 146.388 103.378C146.772 103.368 147.149 103.354 147.52 103.333C147.638 103.28 147.725 103.195 147.782 103.079C147.838 102.964 147.889 102.839 147.933 102.707C147.979 102.572 148.04 102.458 148.114 102.364C148.178 102.327 148.233 102.316 148.28 102.331C148.326 102.345 148.378 102.366 148.435 102.393C148.451 102.403 148.473 102.415 148.501 102.43C148.531 102.443 148.564 102.454 148.601 102.463C148.544 102.665 148.51 102.897 148.501 103.156C148.494 103.415 148.494 103.678 148.501 103.946C148.501 104.167 148.496 104.384 148.486 104.598C148.479 104.81 148.461 104.995 148.435 105.151C148.221 105.169 148.082 105.116 148.018 104.993C147.953 104.867 147.904 104.726 147.867 104.569C147.847 104.502 147.827 104.438 147.808 104.373C147.79 104.31 147.768 104.25 147.741 104.193C147.316 104.129 146.872 104.093 146.41 104.086C145.948 104.076 145.546 104.148 145.205 104.303C145.224 104.812 145.238 105.332 145.245 105.863C145.254 106.394 145.242 106.951 145.205 107.533C145.546 107.551 145.92 107.565 146.326 107.574C146.733 107.584 147.141 107.573 147.546 107.541C147.952 107.509 148.321 107.451 148.656 107.367C148.756 107.19 148.826 106.989 148.863 106.763C148.899 106.537 148.952 106.323 149.021 106.121C149.089 105.917 149.217 105.778 149.405 105.704C149.542 105.983 149.604 106.29 149.589 106.626C149.576 106.964 149.546 107.279 149.5 107.574C149.49 107.675 149.478 107.772 149.463 107.865C149.451 107.959 149.445 108.046 149.445 108.127L149.349 108.227C148.886 108.263 148.417 108.285 147.941 108.289C147.466 108.292 146.987 108.289 146.506 108.282C145.98 108.282 145.457 108.285 144.939 108.289C144.423 108.292 143.92 108.321 143.431 108.378C143.284 108.277 143.218 108.179 143.236 108.083C143.255 107.985 143.284 107.894 143.32 107.81C143.367 107.727 143.39 107.672 143.39 107.644C143.447 107.607 143.513 107.589 143.59 107.589H143.833C143.879 107.589 143.927 107.591 143.977 107.596C144.028 107.602 144.077 107.599 144.124 107.589C144.17 106.916 144.194 106.205 144.194 105.457C144.194 104.708 144.189 103.978 144.18 103.267C144.18 103.073 144.177 102.884 144.172 102.699C144.167 102.513 144.165 102.327 144.165 102.143C144.157 101.794 144.155 101.462 144.157 101.147C144.162 100.833 144.169 100.537 144.18 100.258C144.115 100.242 144.049 100.231 143.98 100.225C143.911 100.22 143.844 100.218 143.778 100.218C143.657 100.218 143.543 100.207 143.438 100.185C143.332 100.161 143.243 100.098 143.169 99.9965C143.178 99.9698 143.188 99.9329 143.195 99.8859C143.214 99.7753 143.245 99.6673 143.287 99.5613C143.329 99.4535 143.414 99.4046 143.542 99.4139C143.893 99.424 144.284 99.4359 144.714 99.4507C145.144 99.4636 145.571 99.4692 145.994 99.4692H147.089C147.199 99.4692 147.31 99.4655 147.421 99.4581C147.531 99.4489 147.643 99.4387 147.756 99.4285C148.068 99.4018 148.372 99.3881 148.667 99.3881Z" fill="#222222"/>
<path fill-rule="evenodd" clip-rule="evenodd" d="M71.1605 18C75.4645 18 79.3741 18.6823 82.8899 20.0466C86.4048 21.4109 89.422 23.3531 91.9422 25.8725C94.4616 28.3928 96.3901 31.3057 97.7276 34.6114C99.067 37.918 99.7373 41.5132 99.7373 45.3968V75.7029C99.7373 78.485 99.1989 81.0569 98.1222 83.4167C97.0474 85.7784 95.4083 87.6683 93.2033 89.0842C90.9983 90.502 88.2162 91.2118 84.859 91.2118C81.604 91.2118 78.8209 90.6337 76.5108 89.4787C74.2026 88.3255 72.4446 86.6994 71.2379 84.6004C70.0303 82.5004 69.4275 80.0594 69.4275 77.2773C69.4275 76.7021 69.4403 76.1121 69.468 75.5074C69.4947 74.9027 69.5602 74.2593 69.6635 73.579C65.6222 73.5274 61.9478 72.7669 58.6421 71.2966C55.3356 69.8272 52.4879 67.8324 50.0985 65.3121C47.711 62.7928 45.8747 59.8677 44.5897 56.5362C44.4947 56.2901 44.4037 56.0426 44.3157 55.794C44.3192 55.9483 44.3216 56.1035 44.3216 56.2596C44.3216 60.0382 43.5731 63.2527 42.076 65.902C40.5808 68.5523 38.5739 70.5729 36.0545 71.964C33.5342 73.3559 30.7531 74.0511 27.7102 74.0511H2.28239V63.0296H25.8186C26.8676 63.0296 27.8134 62.7677 28.6541 62.2442C29.4948 61.7187 30.1632 61.0366 30.6601 60.1977C31.1588 59.357 31.4085 58.438 31.4085 57.4396C31.4085 56.3906 31.1588 55.4466 30.6601 54.6078C30.1632 53.7671 29.4948 53.0849 28.6541 52.5613C27.8134 52.0359 26.8676 51.7723 25.8186 51.7723H17.3194C14.116 51.7723 11.202 51.1436 8.57664 49.8843C5.95314 48.6233 3.86804 46.774 2.31938 44.3349C0.772566 41.8939 9.43534e-06 38.9681 0 35.5555C0 32.1954 0.733795 29.2824 2.20133 26.8165C3.67072 24.3516 5.66558 22.4231 8.18584 21.0311C10.7052 19.6401 13.4863 18.9441 16.5302 18.9441H40.8554V29.9654H18.0273C17.0806 29.9654 16.2141 30.2014 15.4278 30.6734C14.6406 31.1453 14.0376 31.7759 13.6173 32.565C13.1969 33.3522 12.9867 34.2169 12.9867 35.1609C12.9867 36.1048 13.1969 36.9584 13.6173 37.7198C14.0376 38.4822 14.6405 39.099 15.4278 39.571C16.2141 40.0429 17.0807 40.2789 18.0273 40.2789H26.9211C30.4388 40.2789 33.4956 40.949 36.0915 42.2884C38.6892 43.626 40.7099 45.4891 42.1534 47.8785C42.399 48.284 42.623 48.7016 42.8268 49.1306C42.7167 48.0624 42.6613 46.9752 42.6613 45.8688C42.6613 41.9852 43.3295 38.3642 44.6671 35.006C46.0065 31.6459 47.9231 28.6933 50.4157 26.149C52.9083 23.6029 55.9117 21.6081 59.4275 20.1645C62.9452 18.7219 66.8556 18 71.1605 18ZM87.2998 62.7162C86.1955 63.6601 85.2368 64.6317 84.4237 65.6291C83.6098 66.6247 82.9673 67.6608 82.4953 68.7375C82.0234 69.8142 81.6694 70.9167 81.4334 72.045C81.1974 73.1734 81.0794 74.3405 81.0794 75.5481C81.0794 76.492 81.2093 77.2922 81.4702 77.9485C81.7329 78.6048 82.1138 79.1026 82.6134 79.4419C83.1121 79.7829 83.6246 79.9543 84.151 79.9543C85.1465 79.9543 85.919 79.5469 86.4702 78.7339C87.0233 77.9199 87.2998 76.858 87.2998 75.5481V62.7162ZM71.2379 29.1764C69.0348 29.1764 67.0021 29.5838 65.1391 30.3968C63.2752 31.2108 61.6482 32.3797 60.2572 33.9034C58.8652 35.4254 57.7885 37.1963 57.0271 39.217C56.2675 41.2376 55.8877 43.4279 55.8877 45.7878C55.8877 48.1504 56.2417 50.3297 56.9497 52.3254C57.6576 54.3193 58.6799 56.0643 60.0175 57.5613C61.3569 59.0565 62.9314 60.2236 64.7409 61.0643C66.5523 61.9032 68.5352 62.3474 70.6886 62.399C71.2656 62.399 71.803 62.3732 72.2998 62.3216C72.7985 62.2681 73.3111 62.1889 73.8375 62.0857C74.7814 60.6679 75.8821 59.2639 77.1414 57.8747C78.4024 56.4837 79.8192 55.1314 81.3928 53.8188C82.9682 52.5061 84.7003 51.2735 86.5883 50.1203V45.0024C86.5883 42.7457 86.2067 40.6466 85.4452 38.7043C84.6857 36.763 83.6098 35.0834 82.2188 33.6675C80.8296 32.2497 79.2035 31.1472 77.3405 30.36C75.4765 29.5709 73.4429 29.1764 71.2379 29.1764Z" fill="#222222"/>
<path d="M156.564 59.8033C158.611 59.8033 160.382 60.5518 161.877 62.0488C163.374 63.544 164.123 65.3407 164.123 67.4396C164.123 68.8039 163.781 70.0642 163.098 71.2192C162.414 72.3724 161.508 73.2906 160.38 73.9736C159.252 74.6539 157.98 74.995 156.564 74.995C154.464 74.9949 152.666 74.2473 151.169 72.753C149.674 71.256 148.927 69.4852 148.927 67.4396C148.927 65.3406 149.674 63.544 151.169 62.0488C152.666 60.5518 154.464 59.8033 156.564 59.8033Z" fill="#222222"/>
<path d="M114.374 37.6794C114.374 39.676 114.793 41.5013 115.632 43.155C116.472 44.8069 117.667 46.1186 119.216 47.0893C120.764 48.0609 122.588 48.5458 124.687 48.5458C126.787 48.5458 128.609 48.0609 130.156 47.0893C131.705 46.1186 132.897 44.8069 133.736 43.155C134.577 41.5013 134.997 39.676 134.997 37.6794V18.9441H147.91V36.9714C147.91 40.9076 147.228 44.3848 145.864 47.4028C144.5 50.4218 142.557 52.9282 140.038 54.9211C137.518 56.9151 134.579 58.2794 131.221 59.0141V74.0511H118.072V59.0141C114.714 58.2277 111.789 56.8515 109.297 54.8843C106.804 52.9153 104.874 50.4218 103.508 47.4028C102.143 44.3848 101.461 40.9076 101.461 36.9714V18.9441H114.374V37.6794Z" fill="#222222"/>
</g>
</svg>
