<?xml version="1.0" encoding="utf-8"?>
<!-- Generator: Adobe Illustrator 30.2.1, SVG Export Plug-In . SVG Version: 9.03 Build 0)  -->
<svg version="1.0" id="Layer_1" xmlns="http://www.w3.org/2000/svg" xmlns:xlink="http://www.w3.org/1999/xlink" x="0px" y="0px"
	 viewBox="0 0 929.36 522.67" style="enable-background:new 0 0 929.36 522.67;" xml:space="preserve">
<style type="text/css">
	.st0{fill:#222222;}
</style>
<g transform="matrix(1, 0, 0, 1, 395, 484)">
	<g>
		<g>
			<g>
				<g transform="translate(0.529374, 378.499906)">
					<g>
						<path class="st0" d="M-381.24-540.5v-62.27h132.98c5.93,0,11.27-1.48,16.02-4.44c4.75-2.97,8.53-6.82,11.33-11.56
							c2.82-4.75,4.23-9.94,4.23-15.58c0-5.93-1.41-11.26-4.23-16c-2.81-4.75-6.58-8.6-11.33-11.56
							c-4.75-2.97-10.09-4.46-16.02-4.46h-48.02c-18.1,0-34.56-3.55-49.4-10.67c-14.82-7.12-26.6-17.57-35.35-31.35
							c-8.74-13.79-13.1-30.32-13.1-49.6c0-18.98,4.15-35.44,12.44-49.38c8.3-13.93,19.57-24.82,33.81-32.69
							c14.23-7.86,29.95-11.79,47.15-11.79h137.44v62.27h-128.98c-5.35,0-10.24,1.33-14.69,4c-4.45,2.67-7.85,6.23-10.23,10.69
							c-2.38,4.45-3.56,9.33-3.56,14.67c0,5.33,1.19,10.16,3.56,14.46c2.38,4.31,5.78,7.79,10.23,10.46c4.44,2.67,9.34,4,14.69,4
							h50.25c19.88,0,37.15,3.79,51.81,11.35c14.68,7.56,26.09,18.08,34.25,31.58c8.17,13.49,12.25,29.27,12.25,47.35
							c0,21.35-4.23,39.51-12.69,54.48c-8.45,14.97-19.79,26.39-34.02,34.25c-14.24,7.86-29.95,11.79-47.15,11.79H-381.24z"/>
					</g>
				</g>
			</g>
			<g>
				<g transform="translate(183.65007, 378.499906)">
					<g>
						<path class="st0" d="M-97.8-443.54c-18.39,0-34.11-3.27-47.17-9.79c-13.04-6.52-22.97-15.7-29.79-27.56
							c-6.82-11.86-10.23-25.66-10.23-41.38c0-3.25,0.07-6.58,0.23-10c0.15-3.42,0.52-7.05,1.1-10.9
							c-22.83-0.29-43.59-4.59-62.27-12.9c-18.68-8.3-34.77-19.57-48.27-33.81c-13.49-14.23-23.86-30.76-31.12-49.58
							c-7.27-18.83-10.9-38.92-10.9-60.27c0-21.94,3.78-42.4,11.33-61.38c7.57-18.98,18.4-35.67,32.48-50.04
							c14.08-14.39,31.05-25.66,50.92-33.81c19.88-8.15,41.97-12.23,66.29-12.23c24.32,0,46.41,3.85,66.27,11.56
							c19.86,7.71,36.91,18.68,51.15,32.92c14.23,14.24,25.13,30.7,32.69,49.38c7.57,18.68,11.35,38.99,11.35,60.94v171.23
							c0,15.72-3.04,30.25-9.13,43.58c-6.07,13.34-15.33,24.02-27.79,32.02C-63.12-447.55-78.84-443.54-97.8-443.54z M-101.8-507.15
							c5.62,0,9.99-2.3,13.1-6.9c3.12-4.6,4.69-10.6,4.69-18v-72.5c-6.24,5.33-11.66,10.82-16.25,16.46
							c-4.6,5.62-8.23,11.48-10.9,17.56c-2.67,6.08-4.67,12.31-6,18.69c-1.33,6.38-2,12.97-2,19.79c0,5.33,0.73,9.85,2.21,13.56
							c1.48,3.71,3.64,6.52,6.46,8.44C-107.67-508.11-104.78-507.15-101.8-507.15z M-177.87-606.33c3.26,0,6.3-0.15,9.1-0.44
							c2.82-0.3,5.71-0.75,8.69-1.33c5.33-8.01,11.55-15.94,18.67-23.79c7.12-7.86,15.13-15.5,24.02-22.92
							c8.9-7.42,18.69-14.38,29.35-20.9v-28.92c0-12.75-2.16-24.61-6.46-35.58c-4.29-10.97-10.37-20.46-18.23-28.46
							c-7.85-8.01-17.04-14.24-27.56-18.69c-10.53-4.46-22.02-6.69-34.48-6.69c-12.45,0-23.93,2.3-34.46,6.9
							c-10.53,4.6-19.72,11.2-27.58,19.81c-7.86,8.6-13.95,18.6-18.25,30.02c-4.29,11.42-6.44,23.79-6.44,37.12
							c0,13.35,2,25.66,6,36.94c4,11.27,9.78,21.12,17.33,29.58c7.57,8.45,16.46,15.04,26.69,19.79
							C-201.24-609.14-190.03-606.62-177.87-606.33z"/>
					</g>
				</g>
			</g>
			<g>
				<g transform="translate(423.1428, 378.499906)">
					<g>
						<path class="st0" d="M-149.64-540.5v-84.96c-18.97-4.44-35.5-12.22-49.58-23.33c-14.08-11.12-24.99-25.21-32.71-42.27
							c-7.71-17.05-11.56-36.7-11.56-58.94v-101.85h72.96V-746c0,11.28,2.36,21.59,7.1,30.94c4.75,9.33,11.5,16.74,20.25,22.23
							c8.75,5.49,19.05,8.23,30.92,8.23c11.86,0,22.16-2.74,30.9-8.23c8.75-5.48,15.49-12.9,20.23-22.23
							c4.75-9.34,7.12-19.66,7.12-30.94v-105.85h72.96V-750c0,22.24-3.85,41.89-11.56,58.94c-7.71,17.06-18.68,31.22-32.92,42.48
							c-14.24,11.27-30.84,18.97-49.81,23.12v84.96H-149.64z"/>
					</g>
				</g>
			</g>
			<g>
				<g transform="translate(631.280691, 378.499906)">
					<g>
						<path class="st0" d="M-140.3-535.17c-11.86,0-22.02-4.22-30.48-12.67c-8.45-8.46-12.67-18.46-12.67-30.02
							c0-11.86,4.22-22.01,12.67-30.46c8.46-8.46,18.61-12.69,30.48-12.69c11.57,0,21.57,4.23,30.02,12.69
							c8.46,8.45,12.69,18.6,12.69,30.46c0,7.71-1.93,14.83-5.79,21.35c-3.86,6.52-8.98,11.7-15.35,15.56
							C-125.11-537.09-132.3-535.17-140.3-535.17z"/>
					</g>
				</g>
			</g>
		</g>
	</g>
</g>
<g>
	<g transform="translate(410.834108, 1001.893718)">
		<g>
			<path class="st0" d="M-374.51-515.51v7.67c0,4.66-1.14,8.23-3.42,10.73c-2.28,2.5-5.64,3.75-10.08,3.75
				c-4.45,0-7.81-1.25-10.08-3.75c-2.28-2.5-3.42-6.07-3.42-10.73v-29.96c0-4.67,1.14-8.24,3.42-10.73
				c2.28-2.5,5.64-3.75,10.08-3.75c4.44,0,7.8,1.25,10.08,3.75c2.28,2.49,3.42,6.06,3.42,10.73v5.6h-8.56v-6.19
				c0-2.08-0.43-3.55-1.27-4.4c-0.85-0.84-1.99-1.27-3.42-1.27c-1.43,0-2.57,0.43-3.42,1.27c-0.85,0.85-1.27,2.31-1.27,4.4v31.1
				c0,2.08,0.42,3.54,1.27,4.38c0.84,0.82,1.98,1.23,3.42,1.23c1.43,0,2.57-0.41,3.42-1.23c0.84-0.83,1.27-2.29,1.27-4.38v-8.23
				H-374.51z"/>
		</g>
	</g>
</g>
<g>
	<g transform="translate(446.93138, 1001.893718)">
		<g>
			<path class="st0" d="M-369.81-494.04c-0.11-0.39-0.22-0.74-0.33-1.06c-0.1-0.33-0.19-0.74-0.27-1.23
				c-0.08-0.5-0.14-1.13-0.17-1.9c-0.03-0.78-0.04-1.74-0.04-2.9v-9.04c0-2.69-0.47-4.58-1.42-5.67c-0.93-1.09-2.44-1.65-4.52-1.65
				h-3.12v23.44h-9.04v-57.58h13.65c4.72,0,8.14,1.1,10.25,3.29c2.11,2.2,3.17,5.51,3.17,9.94v4.54c0,5.92-1.97,9.81-5.92,11.67
				c2.3,0.95,3.88,2.47,4.73,4.58c0.84,2.11,1.27,4.68,1.27,7.69v8.88c0,1.43,0.05,2.68,0.17,3.75c0.11,1.07,0.39,2.16,0.83,3.25
				H-369.81z M-379.69-543.39v17.69h3.54c1.71,0,3.04-0.44,4-1.31c0.96-0.89,1.44-2.48,1.44-4.79v-5.67c0-2.08-0.38-3.59-1.12-4.52
				c-0.74-0.93-1.9-1.4-3.48-1.4H-379.69z"/>
		</g>
	</g>
</g>
<g>
	<g transform="translate(484.015831, 1001.893718)">
		<g>
			<path class="st0" d="M-367.33-527.35h12.44v8.23h-12.44v16.85h15.65v8.23h-24.69v-57.58h24.69v8.23h-15.65V-527.35z"/>
		</g>
	</g>
</g>
<g>
	<g transform="translate(519.002511, 1001.893718)">
		<g>
			<path class="st0" d="M-335.42-494.04h-9.15l-1.56-10.46h-11.1l-1.56,10.46h-8.31l9.23-57.58h13.25L-335.42-494.04z
				 M-356.06-512.31h8.71l-4.35-29.12L-356.06-512.31z"/>
		</g>
	</g>
</g>
<g>
	<g transform="translate(556.395459, 1001.893718)">
		<g>
			<path class="st0" d="M-354.87-551.62h27.96v8.23h-9.46v49.35h-9.04v-49.35h-9.46V-551.62z"/>
		</g>
	</g>
</g>
<g>
	<g transform="translate(590.641752, 1001.893718)">
		<g>
			<path class="st0" d="M-340.83-551.62h9.04v57.58h-9.04V-551.62z"/>
		</g>
	</g>
</g>
<g>
	<g transform="translate(614.645973, 1001.893718)">
		<g>
			<path class="st0" d="M-319.18-504.64l6.92-46.98h8.31l-8.88,57.58h-13.5l-8.9-57.58h9.15L-319.18-504.64z"/>
		</g>
	</g>
</g>
<g>
	<g transform="translate(651.730434, 1001.893718)">
		<g>
			<path class="st0" d="M-311.42-527.35h12.44v8.23h-12.44v16.85h15.65v8.23h-24.69v-57.58h24.69v8.23h-15.65V-527.35z"/>
		</g>
	</g>
</g>
<g>
	<g transform="translate(686.717103, 1001.893718)">
	</g>
</g>
<g>
	<g transform="translate(708.561858, 1001.893718)">
		<g>
			<path class="st0" d="M-287.88-504.64l6.92-46.98h8.31l-8.88,57.58h-13.5l-8.9-57.58h9.15L-287.88-504.64z"/>
		</g>
	</g>
</g>
<g>
	<g transform="translate(745.64632, 1001.893718)">
		<g>
			<path class="st0" d="M-289.16-551.62h9.04v57.58h-9.04V-551.62z"/>
		</g>
	</g>
</g>
<g>
	<g transform="translate(769.650529, 1001.893718)">
		<g>
			<path class="st0" d="M-281.16-551.62h14.31c4.55,0,7.94,1.21,10.17,3.62c2.22,2.41,3.33,5.94,3.33,10.6v29.12
				c0,4.66-1.11,8.19-3.33,10.6c-2.22,2.42-5.61,3.62-10.17,3.62h-14.31V-551.62z M-272.12-543.39v41.12h5.1
				c1.43,0,2.55-0.41,3.38-1.23c0.82-0.82,1.23-2.27,1.23-4.35v-29.96c0-2.08-0.41-3.53-1.23-4.35c-0.82-0.82-1.95-1.23-3.38-1.23
				H-272.12z"/>
		</g>
	</g>
</g>
<g>
	<g transform="translate(807.105161, 1001.893718)">
		<g>
			<path class="st0" d="M-259.63-527.35h12.44v8.23h-12.44v16.85h15.65v8.23h-24.69v-57.58h24.69v8.23h-15.65V-527.35z"/>
		</g>
	</g>
</g>
<g>
	<g transform="translate(842.091853, 1001.893718)">
		<g>
			<path class="st0" d="M-248.7-507.29c0,2.08,0.42,3.56,1.27,4.42c0.84,0.85,1.98,1.27,3.42,1.27c1.43,0,2.57-0.42,3.42-1.27
				c0.84-0.86,1.27-2.33,1.27-4.42v-31.1c0-2.08-0.43-3.55-1.27-4.4c-0.85-0.84-1.99-1.27-3.42-1.27c-1.43,0-2.57,0.43-3.42,1.27
				c-0.85,0.85-1.27,2.31-1.27,4.4V-507.29z M-257.76-537.81c0-4.67,1.18-8.24,3.54-10.73c2.36-2.5,5.76-3.75,10.21-3.75
				c4.44,0,7.84,1.25,10.19,3.75c2.36,2.49,3.54,6.06,3.54,10.73v29.96c0,4.66-1.18,8.23-3.54,10.73c-2.35,2.5-5.74,3.75-10.19,3.75
				c-4.45,0-7.85-1.25-10.21-3.75c-2.36-2.5-3.54-6.07-3.54-10.73V-537.81z"/>
		</g>
	</g>
</g>
<g>
	<g transform="translate(878.806144, 1001.893718)">
	</g>
</g>
<g>
	<g transform="translate(900.6509, 1001.893718)">
		<g>
			<path class="st0" d="M-237.49-551.62h14.31c4.55,0,7.94,1.21,10.17,3.62c2.22,2.41,3.33,5.94,3.33,10.6v29.12
				c0,4.66-1.11,8.19-3.33,10.6c-2.22,2.42-5.61,3.62-10.17,3.62h-14.31V-551.62z M-228.45-543.39v41.12h5.1
				c1.43,0,2.55-0.41,3.38-1.23c0.82-0.82,1.23-2.27,1.23-4.35v-29.96c0-2.08-0.41-3.53-1.23-4.35c-0.82-0.82-1.95-1.23-3.38-1.23
				H-228.45z"/>
		</g>
	</g>
</g>
<g>
	<g transform="translate(938.105532, 1001.893718)">
		<g>
			<path class="st0" d="M-215.96-527.35h12.44v8.23h-12.44v16.85h15.65v8.23h-24.69v-57.58h24.69v8.23h-15.65V-527.35z"/>
		</g>
	</g>
</g>
<g>
	<g transform="translate(973.092223, 1001.893718)">
		<g>
			<path class="st0" d="M-214.49-537.81c0-4.67,1.11-8.24,3.33-10.73c2.22-2.5,5.55-3.75,9.98-3.75c4.44,0,7.78,1.25,10,3.75
				c2.22,2.49,3.33,6.06,3.33,10.73v1.81h-8.56v-2.4c0-2.08-0.4-3.55-1.19-4.4c-0.79-0.84-1.91-1.27-3.33-1.27
				c-1.42,0-2.53,0.43-3.33,1.27c-0.79,0.85-1.19,2.31-1.19,4.4c0,1.99,0.44,3.74,1.31,5.25c0.88,1.5,1.97,2.93,3.29,4.27
				c1.32,1.33,2.73,2.68,4.23,4.02c1.51,1.35,2.93,2.82,4.25,4.42c1.32,1.58,2.42,3.39,3.29,5.42c0.88,2.03,1.31,4.42,1.31,7.17
				c0,4.66-1.14,8.23-3.42,10.73c-2.28,2.5-5.64,3.75-10.08,3.75c-4.43,0-7.79-1.25-10.06-3.75c-2.28-2.5-3.42-6.07-3.42-10.73
				v-3.54h8.56v4.1c0,2.08,0.42,3.54,1.27,4.38c0.84,0.82,1.98,1.23,3.42,1.23c1.42,0,2.55-0.41,3.4-1.23
				c0.86-0.83,1.29-2.29,1.29-4.38c0-1.97-0.45-3.71-1.33-5.21c-0.88-1.51-1.97-2.94-3.29-4.29c-1.31-1.34-2.72-2.69-4.23-4.02
				c-1.5-1.34-2.91-2.81-4.23-4.4c-1.32-1.59-2.42-3.41-3.29-5.44C-214.05-532.67-214.49-535.06-214.49-537.81z"/>
		</g>
	</g>
</g>
<g>
	<g transform="translate(1008.449108, 1001.893718)">
		<g>
			<path class="st0" d="M-201.56-551.62h9.04v57.58h-9.04V-551.62z"/>
		</g>
	</g>
</g>
<g>
	<g transform="translate(1032.453317, 1001.893718)">
		<g>
			<path class="st0" d="M-179.97-526.12h12.67v18.27c0,4.66-1.14,8.23-3.42,10.73c-2.28,2.5-5.64,3.75-10.08,3.75
				c-4.45,0-7.81-1.25-10.08-3.75c-2.28-2.5-3.42-6.07-3.42-10.73v-29.96c0-4.67,1.14-8.24,3.42-10.73
				c2.28-2.5,5.64-3.75,10.08-3.75c4.44,0,7.8,1.25,10.08,3.75c2.28,2.49,3.42,6.06,3.42,10.73v5.6h-8.56v-6.19
				c0-2.08-0.43-3.55-1.27-4.4c-0.85-0.84-1.99-1.27-3.42-1.27c-1.43,0-2.57,0.43-3.42,1.27c-0.85,0.85-1.27,2.31-1.27,4.4v31.1
				c0,2.08,0.42,3.54,1.27,4.38c0.84,0.82,1.98,1.23,3.42,1.23c1.43,0,2.57-0.41,3.42-1.23c0.84-0.83,1.27-2.29,1.27-4.38v-10.6
				h-4.1V-526.12z"/>
		</g>
	</g>
</g>
<g>
	<g transform="translate(1068.797369, 1001.893718)">
		<g>
			<path class="st0" d="M-173.38-535.74v41.71h-8.15v-57.58h11.35l9.29,34.46v-34.46h8.06v57.58h-9.29L-173.38-535.74z"/>
		</g>
	</g>
</g>
</svg>
