<?xml version="1.0" encoding="utf-8"?>
<!-- Generator: Adobe Illustrator 30.2.1, SVG Export Plug-In . SVG Version: 9.03 Build 0)  -->
<svg version="1.0" id="Layer_1" xmlns="http://www.w3.org/2000/svg" xmlns:xlink="http://www.w3.org/1999/xlink" x="0px" y="0px"
	 viewBox="0 0 913.29 503.54" style="enable-background:new 0 0 913.29 503.54;" xml:space="preserve">
<style type="text/css">
	.st0{fill:#222222;}
</style>
<g transform="matrix(1, 0, 0, 1, 395, 484)">
	<g>
		<g>
			<g>
				<g transform="translate(0.529374, 378.499906)">
					<g>
						<path class="st0" d="M-382.63-545.81v-62.27h132.98c5.93,0,11.27-1.48,16.02-4.44c4.75-2.97,8.53-6.82,11.33-11.56
							c2.82-4.75,4.23-9.94,4.23-15.58c0-5.93-1.41-11.26-4.23-16c-2.81-4.75-6.58-8.6-11.33-11.56
							c-4.75-2.97-10.09-4.46-16.02-4.46h-48.02c-18.1,0-34.56-3.55-49.4-10.67c-14.82-7.12-26.6-17.57-35.35-31.35
							c-8.74-13.79-13.1-30.32-13.1-49.6c0-18.98,4.15-35.44,12.44-49.38c8.3-13.93,19.57-24.82,33.81-32.69
							c14.23-7.86,29.95-11.79,47.15-11.79h137.44v62.27h-128.98c-5.35,0-10.24,1.33-14.69,4c-4.45,2.67-7.85,6.23-10.23,10.69
							c-2.38,4.45-3.56,9.33-3.56,14.67s1.19,10.16,3.56,14.46c2.38,4.31,5.78,7.79,10.23,10.46c4.44,2.67,9.34,4,14.69,4h50.25
							c19.88,0,37.15,3.79,51.81,11.35c14.68,7.56,26.09,18.08,34.25,31.58c8.17,13.49,12.25,29.27,12.25,47.35
							c0,21.35-4.23,39.51-12.69,54.48c-8.45,14.97-19.79,26.39-34.02,34.25c-14.24,7.86-29.95,11.79-47.15,11.79H-382.63z"/>
					</g>
				</g>
			</g>
			<g>
				<g transform="translate(183.65007, 378.499906)">
					<g>
						<path class="st0" d="M-99.2-448.85c-18.39,0-34.11-3.27-47.17-9.79c-13.04-6.52-22.97-15.7-29.79-27.56
							c-6.82-11.86-10.23-25.66-10.23-41.38c0-3.25,0.07-6.58,0.23-10c0.15-3.42,0.52-7.05,1.1-10.9
							c-22.83-0.29-43.59-4.59-62.27-12.9c-18.68-8.3-34.77-19.57-48.27-33.81c-13.49-14.23-23.86-30.76-31.12-49.58
							c-7.27-18.83-10.9-38.92-10.9-60.27c0-21.94,3.78-42.4,11.33-61.38c7.57-18.98,18.4-35.67,32.48-50.04
							c14.08-14.39,31.05-25.66,50.92-33.81c19.88-8.15,41.97-12.23,66.29-12.23c24.32,0,46.41,3.85,66.27,11.56
							c19.86,7.71,36.91,18.68,51.15,32.92c14.23,14.24,25.13,30.7,32.69,49.38c7.57,18.68,11.35,38.99,11.35,60.94v171.23
							c0,15.72-3.04,30.25-9.13,43.58c-6.07,13.34-15.33,24.02-27.79,32.02C-64.51-452.86-80.23-448.85-99.2-448.85z M-103.2-512.46
							c5.62,0,9.99-2.3,13.1-6.9c3.12-4.6,4.69-10.6,4.69-18v-72.5c-6.24,5.33-11.66,10.82-16.25,16.46
							c-4.6,5.62-8.23,11.48-10.9,17.56c-2.67,6.08-4.67,12.31-6,18.69s-2,12.97-2,19.79c0,5.33,0.73,9.85,2.21,13.56
							c1.48,3.71,3.64,6.52,6.46,8.44C-109.07-513.43-106.17-512.46-103.2-512.46z M-179.26-611.65c3.26,0,6.3-0.15,9.1-0.44
							c2.82-0.3,5.71-0.75,8.69-1.33c5.33-8.01,11.55-15.94,18.67-23.79c7.12-7.86,15.13-15.5,24.02-22.92
							c8.9-7.42,18.69-14.38,29.35-20.9v-28.92c0-12.75-2.16-24.61-6.46-35.58c-4.29-10.97-10.37-20.46-18.23-28.46
							c-7.85-8.01-17.04-14.24-27.56-18.69c-10.53-4.46-22.02-6.69-34.48-6.69c-12.45,0-23.93,2.3-34.46,6.9
							c-10.53,4.6-19.72,11.2-27.58,19.81c-7.86,8.6-13.95,18.6-18.25,30.02c-4.29,11.42-6.44,23.79-6.44,37.12
							c0,13.35,2,25.66,6,36.94c4,11.27,9.78,21.12,17.33,29.58c7.57,8.45,16.46,15.04,26.69,19.79
							C-202.63-614.45-191.43-611.94-179.26-611.65z"/>
					</g>
				</g>
			</g>
			<g>
				<g transform="translate(423.1428, 378.499906)">
					<g>
						<path class="st0" d="M-165.03-545.81v-84.96c-18.97-4.44-35.5-12.22-49.58-23.33c-14.08-11.12-24.99-25.21-32.71-42.27
							c-7.71-17.05-11.56-36.7-11.56-58.94v-101.85h72.96v105.85c0,11.28,2.36,21.59,7.1,30.94c4.75,9.33,11.5,16.74,20.25,22.23
							c8.75,5.49,19.05,8.23,30.92,8.23c11.86,0,22.16-2.74,30.9-8.23c8.75-5.48,15.49-12.9,20.23-22.23
							c4.75-9.34,7.12-19.66,7.12-30.94v-105.85H3.55v101.85c0,22.24-3.85,41.89-11.56,58.94c-7.71,17.06-18.68,31.22-32.92,42.48
							c-14.24,11.27-30.84,18.97-49.81,23.12v84.96H-165.03z"/>
					</g>
				</g>
			</g>
			<g>
				<g transform="translate(631.280691, 378.499906)">
					<g>
						<path class="st0" d="M-155.7-540.48c-11.86,0-22.02-4.22-30.48-12.67c-8.45-8.46-12.67-18.46-12.67-30.02
							c0-11.86,4.22-22.01,12.67-30.46c8.46-8.46,18.61-12.69,30.48-12.69c11.57,0,21.57,4.23,30.02,12.69
							c8.46,8.45,12.69,18.6,12.69,30.46c0,7.71-1.93,14.83-5.79,21.35c-3.86,6.52-8.98,11.7-15.35,15.56
							C-140.51-542.41-147.7-540.48-155.7-540.48z"/>
					</g>
				</g>
			</g>
		</g>
	</g>
</g>
<g>
	<g transform="translate(417.062073, 1016.393748)">
		<g>
			<path class="st0" d="M-343.46-570.39c-1.31,1.31-2.81,2.44-4.5,3.4c-1.68,0.95-3.12,2.16-4.31,3.65
				c-0.35,1.49-0.7,2.94-1.06,4.35c-0.36,1.42-0.75,2.81-1.17,4.19c-1.83,6.35-3.9,12.49-6.19,18.42
				c-2.28,5.93-4.33,12.22-6.17,18.85c-0.6,0.6-1.09,1.27-1.48,2c-0.38,0.74-0.83,1.43-1.38,2.08c-0.66,0.36-1.28,0.48-1.88,0.35
				c-0.58-0.11-1.15-0.26-1.69-0.44c-0.47-0.12-0.79-0.22-0.96-0.27c-2.56-6.34-4.89-13.07-7-20.19c-2.1-7.12-4.28-14.09-6.54-20.92
				c-0.77-2.36-1.56-4.67-2.4-6.92c-0.83-2.26-1.72-4.49-2.67-6.69c-0.53-0.18-1.05-0.23-1.56-0.17c-0.5,0.06-0.99,0.11-1.46,0.17
				c-0.54,0.12-1.05,0.2-1.52,0.23c-0.47,0.03-0.95-0.05-1.42-0.23c-0.42-0.65-0.54-1.23-0.35-1.73c0.18-0.5,0.39-0.99,0.62-1.48
				c0.11-0.17,0.21-0.32,0.29-0.48c0.09-0.15,0.17-0.32,0.23-0.5c1.19,0.07,2.38,0.08,3.56,0.02c1.19-0.07,2.38-0.13,3.56-0.19
				c0.89-0.12,1.79-0.2,2.71-0.23c0.92-0.03,1.79-0.04,2.62-0.04c1.61,0.06,3.11,0.29,4.5,0.71c1.39,0.42,2.59,1.25,3.6,2.5
				c-1.07,0.53-2.27,1.04-3.6,1.52c-1.33,0.47-2.42,0.77-3.25,0.88c0.47,2.08,0.98,4.18,1.54,6.29c0.57,2.1,1.18,4.21,1.83,6.33
				c1.61,5.17,3.36,10.36,5.25,15.58c1.9,5.21,3.51,10.45,4.81,15.73c2.07-4.97,4.15-10.02,6.25-15.15c2.11-5.14,4-10.49,5.67-16.06
				c1.18-3.97,2.16-8.01,2.94-12.1c-0.42-0.65-1.04-1.11-1.88-1.38c-0.83-0.26-1.7-0.51-2.58-0.75c-0.89-0.25-1.62-0.61-2.21-1.08
				c0.11-0.89,0.67-1.55,1.67-2c1.01-0.44,2.26-0.72,3.75-0.83c1.48-0.12,3.01-0.15,4.58-0.08c1.57,0.06,2.98,0.14,4.23,0.25
				c1.07,0.12,2.06,0.41,2.98,0.85C-344.54-571.48-343.87-570.97-343.46-570.39z"/>
		</g>
	</g>
</g>
<g>
	<g transform="translate(481.699831, 1016.393748)">
		<g>
			<path class="st0" d="M-351.35-570.29c-0.31,0.89-1.01,1.4-2.1,1.52c-1.1,0.11-2.24,0.14-3.42,0.08c-0.36,0-0.72,0-1.08,0
				c-0.35,0-0.7,0-1.06,0c-0.24,0.17-0.18,0.61,0.19,1.33c0.11,0.24,0.21,0.49,0.29,0.75c0.09,0.27,0.15,0.52,0.15,0.75
				c-0.24,0.24-0.42,0.52-0.54,0.85c-0.11,0.32-0.22,0.72-0.33,1.19c-0.07,1.49-0.1,2.96-0.1,4.42c0,1.45-0.03,2.94-0.08,4.48
				c-0.06,5.7-0.1,11.45-0.15,17.27c-0.03,5.81-0.04,11.58-0.04,17.33c1.38,0.07,2.86,0.41,4.46,1c1.59,0.58,2.75,1.5,3.46,2.75
				c-1.47,0.89-3.18,1.36-5.1,1.42c-1.93,0.06-3.93,0.03-6-0.08c-1.25-0.05-2.49-0.09-3.71-0.12c-1.21-0.04-2.38,0.03-3.5,0.21
				c-0.36,0.06-0.64,0.19-0.81,0.4c-0.17,0.21-0.34,0.43-0.52,0.67c-0.18,0.36-0.43,0.67-0.73,0.94c-0.29,0.26-0.77,0.31-1.42,0.15
				c-0.58-0.83-0.81-1.67-0.67-2.5c0.15-0.83,0.48-1.61,0.98-2.35c0.51-0.75,0.97-1.36,1.38-1.83c0.3,0,0.61,0,0.94,0
				c0.33,0,0.67,0,1.02,0c0.72,0,1.44,0,2.15,0c0.71,0,1.33-0.11,1.88-0.35c-0.07-5.33-0.1-11.01-0.1-17.02
				c0-6.03-0.06-11.98-0.17-17.85c-0.07-4.62-0.25-9.07-0.54-13.33c-0.42-0.12-0.86-0.2-1.33-0.23c-0.47-0.03-0.98-0.04-1.52-0.04
				c-0.82,0-1.62-0.03-2.4-0.08c-0.77-0.05-1.45-0.32-2.04-0.81c-0.12-0.47-0.11-0.82,0.04-1.06c0.15-0.23,0.32-0.47,0.5-0.71
				c0.17-0.18,0.3-0.38,0.42-0.58c0.12-0.21,0.19-0.46,0.19-0.75c1.84,0,3.82-0.09,5.92-0.27c2.11-0.18,4.17-0.27,6.19-0.27
				c2.01,0,3.85,0.18,5.52,0.54C-353.51-572.15-352.24-571.41-351.35-570.29z"/>
		</g>
	</g>
</g>
<g>
	<g transform="translate(526.326647, 1016.393748)">
		<g>
			<path class="st0" d="M-307.22-538.97c-0.35,3.56-1.28,6.76-2.79,9.6c-1.52,2.85-3.39,5.31-5.6,7.4c-2.22,2.07-4.58,3.7-7.08,4.88
				c-2.96,1.02-6.16,1.62-9.6,1.83c-3.43,0.21-6.9,0.31-10.4,0.31c-3.08,0-6.1,0.08-9.04,0.23c-2.93,0.14-5.61,0.56-8.04,1.27
				c0.11-1,0.38-1.88,0.79-2.65c0.42-0.78,0.9-1.46,1.44-2.06c0.4-0.12,0.78-0.19,1.15-0.19c0.36,0,0.71,0,1.06,0
				c0.36,0.07,0.73,0.1,1.1,0.1c0.39,0,0.82-0.09,1.31-0.27c0.11-3.14,0.15-6.53,0.12-10.19c-0.03-3.65-0.07-7.43-0.12-11.33
				c-0.07-2.44-0.12-4.91-0.15-7.4c-0.03-2.48-0.04-4.98-0.04-7.48c0-2.19,0.01-4.36,0.04-6.52c0.03-2.17,0.07-4.29,0.15-6.38
				c-0.6-0.29-1.22-0.45-1.88-0.48c-0.66-0.03-1.31-0.01-1.96,0.04c-0.6,0-1.21-0.01-1.83-0.04c-0.61-0.03-1.16-0.19-1.65-0.5
				c0.12-1.72,0.84-2.86,2.15-3.42c1.3-0.57,2.76-0.88,4.35-0.94c3.32-0.18,6.96-0.23,10.94-0.17c3.97,0.06,7.89,0.31,11.75,0.75
				c3.86,0.45,7.3,1.19,10.31,2.23c3.03,1.03,5.22,2.47,6.58,4.31c1.12,1.47,2.16,3.15,3.1,5.02c0.96,1.86,1.76,3.93,2.42,6.19
				c0.65,2.31,1.12,4.78,1.42,7.42C-306.92-544.75-306.92-541.94-307.22-538.97z M-315.85-552.22c-0.06-0.48-0.14-0.93-0.23-1.33
				c-0.08-0.42-0.18-0.83-0.29-1.25c-1.02-4.04-2.92-7.14-5.71-9.29c-2.78-2.17-6.2-3.56-10.27-4.19c-4.06-0.62-8.52-0.55-13.4,0.21
				c0,2.03,0.01,4.14,0.04,6.33c0.04,2.2,0.06,4.47,0.06,6.83c0.05,5.22,0.08,10.59,0.08,16.1c0,5.52-0.06,10.74-0.19,15.67
				c0,0.66-0.04,1.39-0.12,2.19c-0.08,0.79-0.28,1.52-0.58,2.17c1.12-0.05,2.21-0.08,3.25-0.08c1.04,0,2.06,0,3.06,0
				c1.96,0,3.82-0.03,5.6-0.08c1.79-0.07,3.46-0.28,5-0.62c1.05-0.3,2.36-0.75,3.94-1.33c1.58-0.59,2.79-1.22,3.62-1.88
				c1.36-1.07,2.51-2.71,3.46-4.94c0.94-2.22,1.67-4.74,2.17-7.56c0.51-2.82,0.81-5.71,0.9-8.67
				C-315.36-546.92-315.49-549.68-315.85-552.22z"/>
		</g>
	</g>
</g>
<g>
	<g transform="translate(593.632538, 1016.393748)">
		<g>
			<path class="st0" d="M-297.41-516.47l-0.62,0.62c-2.96,0.24-5.97,0.37-9.02,0.4c-3.06,0.03-6.12,0.02-9.21-0.04
				c-3.39,0-6.74,0.02-10.06,0.04c-3.32,0.03-6.55,0.22-9.69,0.58c-0.95-0.65-1.36-1.29-1.25-1.92c0.12-0.62,0.3-1.2,0.54-1.73
				c0.29-0.54,0.44-0.9,0.44-1.06c0.36-0.23,0.79-0.35,1.29-0.35s1.02,0,1.56,0c0.29,0,0.59,0.02,0.92,0.04
				c0.33,0.03,0.65,0.02,0.94-0.04c0.3-4.33,0.46-8.9,0.46-13.71c0-4.8-0.04-9.49-0.1-14.06c0-1.23-0.02-2.44-0.04-3.62
				c-0.03-1.19-0.04-2.39-0.04-3.58c-0.06-2.25-0.07-4.38-0.04-6.4c0.03-2.01,0.07-3.91,0.12-5.69c-0.41-0.12-0.83-0.2-1.27-0.23
				c-0.45-0.03-0.88-0.04-1.29-0.04c-0.78,0-1.51-0.07-2.19-0.21c-0.68-0.15-1.26-0.55-1.73-1.21c0.05-0.18,0.11-0.42,0.17-0.73
				c0.12-0.71,0.32-1.4,0.58-2.08c0.26-0.68,0.81-0.99,1.65-0.94c2.25,0.06,4.75,0.14,7.5,0.23c2.76,0.08,5.51,0.12,8.23,0.12
				c2.73,0,5.08,0,7.04,0c0.71,0,1.42-0.03,2.12-0.08c0.72-0.05,1.44-0.11,2.15-0.19c2.01-0.17,3.97-0.25,5.88-0.25
				c1.9,0,3.56,0.5,4.98,1.5c-0.06,0.6-0.07,1.3-0.04,2.1c0.03,0.79,0.04,1.64,0.04,2.52c0.12,1.67,0.17,3.36,0.12,5.08
				c-0.03,1.72-0.28,3.08-0.75,4.08c-1.07,0.24-1.85,0.1-2.35-0.4s-0.84-1.19-1.02-2.08c-0.24-1.19-0.41-2.55-0.5-4.06
				c-0.08-1.51-0.39-2.65-0.92-3.42c-0.72,0-1.52,0-2.38,0c-0.85,0-1.75-0.03-2.71-0.08c-2.85,0-5.86,0-9.04,0
				c-3.17,0-5.73,0.12-7.69,0.35c0.07,0.77,0.1,1.74,0.1,2.94c0,1.18-0.04,2.52-0.1,4c0,0.83,0,1.68,0,2.54c0,0.85,0,1.72,0,2.6
				c0,1.43,0.04,2.86,0.12,4.29c0.09,1.42,0.21,2.78,0.33,4.08c2.3-0.23,4.69-0.38,7.15-0.44c2.47-0.07,4.9-0.16,7.27-0.27
				c0.76-0.36,1.32-0.91,1.67-1.65c0.36-0.75,0.69-1.55,0.98-2.42c0.3-0.86,0.69-1.58,1.17-2.17c0.42-0.23,0.77-0.31,1.06-0.23
				c0.3,0.08,0.63,0.22,0.98,0.4c0.12,0.07,0.27,0.15,0.44,0.23c0.18,0.08,0.4,0.16,0.65,0.23c-0.36,1.31-0.58,2.79-0.65,4.46
				c-0.06,1.66-0.05,3.34,0.02,5.06c0,1.42-0.04,2.81-0.1,4.17c-0.06,1.36-0.18,2.55-0.35,3.56c-1.36,0.12-2.25-0.21-2.67-1.02
				c-0.42-0.8-0.74-1.71-0.98-2.71c-0.11-0.42-0.23-0.83-0.35-1.25c-0.11-0.42-0.26-0.8-0.44-1.17c-2.74-0.42-5.59-0.65-8.56-0.71
				c-2.96-0.05-5.54,0.43-7.73,1.44c0.12,3.25,0.21,6.58,0.27,10c0.07,3.41-0.02,6.97-0.27,10.71c2.19,0.12,4.59,0.22,7.21,0.29
				c2.61,0.06,5.22-0.02,7.83-0.23c2.61-0.21,4.98-0.58,7.12-1.12c0.65-1.12,1.09-2.41,1.33-3.85c0.23-1.46,0.57-2.84,1.02-4.15
				c0.44-1.3,1.26-2.19,2.44-2.67c0.89,1.78,1.28,3.75,1.19,5.92c-0.08,2.17-0.27,4.2-0.56,6.08c-0.06,0.66-0.14,1.28-0.23,1.88
				C-297.37-517.56-297.41-517-297.41-516.47z"/>
		</g>
	</g>
</g>
<g>
	<g transform="translate(651.59997, 1016.393748)">
		<g>
			<path class="st0" d="M-266.26-539.95c-0.12,2.2-0.56,4.18-1.29,5.96c-0.74,1.78-1.54,3.52-2.4,5.21
				c-0.86,1.68-1.56,3.54-2.1,5.56c-0.58-0.12-1.22,0.23-1.92,1.06c-0.68,0.83-1.29,1.7-1.81,2.58c-2.49,1.31-5.12,2.68-7.92,4.1
				c-2.79,1.42-5.85,2.12-9.17,2.12c-3.08,0-5.92-0.67-8.5-2c-2.57-1.34-5.07-2.61-7.5-3.79c0-0.83-0.31-1.36-0.94-1.6
				c-0.62-0.23-1.15-0.56-1.56-0.98c-2.31-2.61-4.24-5.68-5.79-9.21c-1.54-3.53-2.43-7.51-2.67-11.96
				c-0.17-4.15,0.28-8.16,1.33-12.02c0.96-3.43,2.36-6.51,4.23-9.23c1.88-2.73,4.17-4.73,6.9-5.98c0.96-1,2.07-1.93,3.33-2.79
				c1.28-0.86,2.84-1.05,4.69-0.58l0.35-0.62c1.59-0.36,3.52-0.52,5.77-0.48c2.25,0.03,4.53,0.27,6.83,0.71
				c2.32,0.45,4.41,1.16,6.27,2.15c1.88,0.97,3.2,2.26,3.98,3.85c0.36,0.06,0.67,0.06,0.94,0c0.26-0.05,0.51-0.08,0.75-0.08
				c0.23-0.07,0.47-0.11,0.71-0.15c0.23-0.03,0.53,0.05,0.9,0.23c-0.06,0.71-0.07,1.38-0.04,2c0.03,0.62,0.13,1.18,0.31,1.65
				c1.07,0.6,1.86,1.45,2.4,2.54c0.54,1.1,0.98,2.26,1.33,3.48c0.36,1.21,0.75,2.35,1.17,3.42c0.11,0.24,0.22,0.47,0.33,0.71
				c0.12,0.24,0.25,0.47,0.38,0.71c0.05,0.71,0.11,1.41,0.17,2.08c0.07,0.68,0.13,1.39,0.19,2.1c0.11,1.6,0.22,3.2,0.33,4.81
				C-266.15-542.79-266.15-541.31-266.26-539.95z M-274.61-554.81c-0.07-0.3-0.14-0.57-0.19-0.81c-0.06-0.23-0.12-0.47-0.19-0.71
				c-0.17-0.94-0.56-2.12-1.19-3.54c-0.62-1.43-1.29-2.81-2-4.15s-1.33-2.27-1.88-2.81c-1.36-1.54-3.1-2.57-5.21-3.1
				c-2.1-0.54-4.33-0.73-6.71-0.58c-2.38,0.16-4.66,0.6-6.85,1.33c-2.2,0.74-4.06,1.64-5.6,2.71c-1.36,1.49-2.54,3.22-3.52,5.21
				c-0.97,1.99-1.76,4.1-2.35,6.35c-0.42,1.61-0.74,3.28-0.98,5c-0.24,1.71-0.35,3.43-0.35,5.15c-0.06,3.79,0.4,7.52,1.38,11.17
				c0.98,3.66,2.48,6.79,4.5,9.4c1.59,2.07,3.53,3.7,5.81,4.9c2.29,1.18,4.89,1.71,7.79,1.58c3.5-0.11,6.53-1.2,9.08-3.27
				c2.55-2.08,4.57-4.76,6.04-8.02c1.72-3.61,2.79-7.69,3.21-12.23C-273.4-545.79-273.67-550.31-274.61-554.81z"/>
		</g>
	</g>
</g>
<g>
	<g transform="translate(715.970921, 1016.393748)">
	</g>
</g>
<g>
	<g transform="translate(745.92306, 1016.393748)">
		<g>
			<path class="st0" d="M-234.02-538.97c-0.35,3.56-1.28,6.76-2.79,9.6c-1.52,2.85-3.39,5.31-5.6,7.4c-2.22,2.07-4.58,3.7-7.08,4.88
				c-2.96,1.02-6.16,1.62-9.6,1.83c-3.43,0.21-6.9,0.31-10.4,0.31c-3.08,0-6.1,0.08-9.04,0.23c-2.93,0.14-5.61,0.56-8.04,1.27
				c0.11-1,0.38-1.88,0.79-2.65c0.42-0.78,0.9-1.46,1.44-2.06c0.4-0.12,0.78-0.19,1.15-0.19c0.36,0,0.71,0,1.06,0
				c0.36,0.07,0.73,0.1,1.1,0.1c0.39,0,0.82-0.09,1.31-0.27c0.11-3.14,0.15-6.53,0.12-10.19c-0.03-3.65-0.07-7.43-0.12-11.33
				c-0.07-2.44-0.12-4.91-0.15-7.4c-0.03-2.48-0.04-4.98-0.04-7.48c0-2.19,0.01-4.36,0.04-6.52c0.03-2.17,0.07-4.29,0.15-6.38
				c-0.6-0.29-1.22-0.45-1.88-0.48c-0.66-0.03-1.31-0.01-1.96,0.04c-0.6,0-1.21-0.01-1.83-0.04c-0.61-0.03-1.16-0.19-1.65-0.5
				c0.12-1.72,0.84-2.86,2.15-3.42c1.3-0.57,2.76-0.88,4.35-0.94c3.32-0.18,6.96-0.23,10.94-0.17c3.97,0.06,7.89,0.31,11.75,0.75
				c3.86,0.45,7.3,1.19,10.31,2.23c3.03,1.03,5.22,2.47,6.58,4.31c1.12,1.47,2.16,3.15,3.1,5.02c0.96,1.86,1.76,3.93,2.42,6.19
				c0.65,2.31,1.12,4.78,1.42,7.42C-233.72-544.75-233.72-541.94-234.02-538.97z M-242.65-552.22c-0.06-0.48-0.14-0.93-0.23-1.33
				c-0.08-0.42-0.18-0.83-0.29-1.25c-1.02-4.04-2.92-7.14-5.71-9.29c-2.78-2.17-6.2-3.56-10.27-4.19c-4.06-0.62-8.52-0.55-13.4,0.21
				c0,2.03,0.01,4.14,0.04,6.33c0.04,2.2,0.06,4.47,0.06,6.83c0.05,5.22,0.08,10.59,0.08,16.1c0,5.52-0.06,10.74-0.19,15.67
				c0,0.66-0.04,1.39-0.12,2.19c-0.08,0.79-0.28,1.52-0.58,2.17c1.12-0.05,2.21-0.08,3.25-0.08c1.04,0,2.06,0,3.06,0
				c1.96,0,3.82-0.03,5.6-0.08c1.79-0.07,3.46-0.28,5-0.62c1.05-0.3,2.36-0.75,3.94-1.33c1.58-0.59,2.79-1.22,3.62-1.88
				c1.36-1.07,2.51-2.71,3.46-4.94c0.94-2.22,1.67-4.74,2.17-7.56c0.51-2.82,0.81-5.71,0.9-8.67
				C-242.16-546.92-242.29-549.68-242.65-552.22z"/>
		</g>
	</g>
</g>
<g>
	<g transform="translate(813.228939, 1016.393748)">
		<g>
			<path class="st0" d="M-224.21-516.47l-0.62,0.62c-2.96,0.24-5.97,0.37-9.02,0.4c-3.06,0.03-6.12,0.02-9.21-0.04
				c-3.39,0-6.74,0.02-10.06,0.04c-3.32,0.03-6.55,0.22-9.69,0.58c-0.95-0.65-1.36-1.29-1.25-1.92c0.12-0.62,0.3-1.2,0.54-1.73
				c0.29-0.54,0.44-0.9,0.44-1.06c0.36-0.23,0.79-0.35,1.29-0.35s1.02,0,1.56,0c0.29,0,0.59,0.02,0.92,0.04
				c0.33,0.03,0.65,0.02,0.94-0.04c0.3-4.33,0.46-8.9,0.46-13.71c0-4.8-0.04-9.49-0.1-14.06c0-1.23-0.02-2.44-0.04-3.62
				c-0.03-1.19-0.04-2.39-0.04-3.58c-0.06-2.25-0.07-4.38-0.04-6.4c0.03-2.01,0.07-3.91,0.12-5.69c-0.41-0.12-0.83-0.2-1.27-0.23
				c-0.45-0.03-0.88-0.04-1.29-0.04c-0.78,0-1.51-0.07-2.19-0.21c-0.68-0.15-1.26-0.55-1.73-1.21c0.05-0.18,0.11-0.42,0.17-0.73
				c0.12-0.71,0.32-1.4,0.58-2.08c0.26-0.68,0.81-0.99,1.65-0.94c2.25,0.06,4.75,0.14,7.5,0.23c2.76,0.08,5.51,0.12,8.23,0.12
				c2.73,0,5.08,0,7.04,0c0.71,0,1.42-0.03,2.12-0.08c0.72-0.05,1.44-0.11,2.15-0.19c2.01-0.17,3.97-0.25,5.88-0.25
				c1.9,0,3.56,0.5,4.98,1.5c-0.06,0.6-0.07,1.3-0.04,2.1c0.03,0.79,0.04,1.64,0.04,2.52c0.12,1.67,0.17,3.36,0.12,5.08
				c-0.03,1.72-0.28,3.08-0.75,4.08c-1.07,0.24-1.85,0.1-2.35-0.4s-0.84-1.19-1.02-2.08c-0.24-1.19-0.41-2.55-0.5-4.06
				c-0.08-1.51-0.39-2.65-0.92-3.42c-0.72,0-1.52,0-2.38,0c-0.85,0-1.75-0.03-2.71-0.08c-2.85,0-5.86,0-9.04,0
				c-3.17,0-5.73,0.12-7.69,0.35c0.07,0.77,0.1,1.74,0.1,2.94c0,1.18-0.04,2.52-0.1,4c0,0.83,0,1.68,0,2.54c0,0.85,0,1.72,0,2.6
				c0,1.43,0.04,2.86,0.12,4.29c0.09,1.42,0.21,2.78,0.33,4.08c2.3-0.23,4.69-0.38,7.15-0.44c2.47-0.07,4.9-0.16,7.27-0.27
				c0.76-0.36,1.32-0.91,1.67-1.65c0.36-0.75,0.69-1.55,0.98-2.42c0.3-0.86,0.69-1.58,1.17-2.17c0.42-0.23,0.77-0.31,1.06-0.23
				c0.3,0.08,0.63,0.22,0.98,0.4c0.12,0.07,0.27,0.15,0.44,0.23c0.18,0.08,0.4,0.16,0.65,0.23c-0.36,1.31-0.58,2.79-0.65,4.46
				c-0.06,1.66-0.05,3.34,0.02,5.06c0,1.42-0.04,2.81-0.1,4.17c-0.06,1.36-0.18,2.55-0.35,3.56c-1.36,0.12-2.25-0.21-2.67-1.02
				c-0.42-0.8-0.74-1.71-0.98-2.71c-0.11-0.42-0.23-0.83-0.35-1.25c-0.11-0.42-0.26-0.8-0.44-1.17c-2.74-0.42-5.59-0.65-8.56-0.71
				c-2.96-0.05-5.54,0.43-7.73,1.44c0.12,3.25,0.21,6.58,0.27,10c0.07,3.41-0.02,6.97-0.27,10.71c2.19,0.12,4.59,0.22,7.21,0.29
				c2.61,0.06,5.22-0.02,7.83-0.23c2.61-0.21,4.98-0.58,7.12-1.12c0.65-1.12,1.09-2.41,1.33-3.85c0.23-1.46,0.57-2.84,1.02-4.15
				c0.44-1.3,1.26-2.19,2.44-2.67c0.89,1.78,1.28,3.75,1.19,5.92c-0.08,2.17-0.27,4.2-0.56,6.08c-0.06,0.66-0.14,1.28-0.23,1.88
				C-224.17-517.56-224.21-517-224.21-516.47z"/>
		</g>
	</g>
</g>
<g>
	<g transform="translate(871.196372, 1016.393748)">
		<g>
			<path class="st0" d="M-208.1-526.08c-0.66,2.61-1.95,4.85-3.88,6.73c-1.92,1.86-4.18,3.24-6.79,4.12
				c-2.61,0.89-5.45,1.28-8.5,1.19c-3.06-0.08-6.12-0.71-9.21-1.9c-0.6,0.11-1.1,0.33-1.52,0.67c-0.41,0.32-0.79,0.69-1.15,1.1
				c-0.53,0.54-1.06,0.94-1.6,1.21c-0.53,0.26-1.27,0.01-2.23-0.77c-0.64-1.05-1.08-2.46-1.33-4.21c-0.24-1.75-0.31-3.61-0.23-5.6
				c0.09-1.98,0.32-3.85,0.67-5.6c0.36-1.75,0.81-3.13,1.35-4.15c1.36,0.47,2.28,1.23,2.75,2.27c0.47,1.04,0.82,2.18,1.06,3.42
				c0.3,1.31,0.59,2.6,0.85,3.88c0.26,1.28,0.88,2.42,1.83,3.42c1,1.02,2.21,1.74,3.62,2.19c1.43,0.45,2.92,0.67,4.46,0.67
				c1.96-0.05,3.9-0.42,5.83-1.1c1.93-0.68,3.61-1.59,5.06-2.75c1.46-1.17,2.4-2.49,2.81-3.98c0.34-2.54,0.25-4.58-0.29-6.12
				c-0.53-1.54-1.35-2.82-2.48-3.83c-1.36-1.3-3.04-2.35-5.02-3.15c-1.99-0.8-3.96-1.77-5.92-2.9c-0.77-0.47-1.46-1.03-2.08-1.69
				c-0.62-0.65-1.33-1.19-2.1-1.6c-0.82-0.47-1.7-0.85-2.62-1.15c-0.92-0.3-1.7-0.67-2.35-1.08c-1.36-0.89-2.54-2.04-3.52-3.46
				c-0.97-1.43-1.7-2.98-2.17-4.65c-0.24-0.82-0.42-1.67-0.54-2.56c-0.11-0.89-0.17-1.81-0.17-2.77c0-1.89,0.31-3.75,0.94-5.58
				c0.62-1.84,1.58-3.51,2.88-5c2.32-1.07,4.93-1.9,7.83-2.48c2.9-0.59,5.86-0.84,8.9-0.75c3.03,0.08,5.84,0.69,8.46,1.81
				c0.23-0.12,0.44-0.27,0.62-0.44c0.18-0.18,0.32-0.39,0.44-0.62c0.36-0.42,0.73-0.76,1.1-1.02c0.39-0.28,0.97-0.18,1.75,0.29
				c0.34,1.43,0.56,3.2,0.65,5.31c0.09,2.1,0.04,4.14-0.17,6.12c-0.21,1.99-0.6,3.49-1.19,4.5c-1.25-0.07-2.14-0.5-2.65-1.29
				c-0.5-0.8-0.79-1.8-0.88-2.98c-0.08-1.19-0.12-2.44-0.12-3.75c0-0.11,0-0.19,0-0.25c-1.38-1.25-3.14-2.21-5.27-2.9
				c-2.12-0.68-4.31-1.02-6.56-1.02c-1.78,0-3.46,0.25-5.04,0.75c-1.57,0.5-2.85,1.29-3.85,2.35c-0.83,0.89-1.43,1.96-1.79,3.21
				c-0.35,1.25-0.35,2.73,0,4.44c0.12,0.66,0.44,1.39,0.94,2.19c0.5,0.81,0.99,1.45,1.48,1.92l0.52,0.52
				c1.43,1.31,3.19,2.53,5.29,3.67c2.11,1.12,4.34,2.27,6.71,3.42c2.38,1.16,4.6,2.45,6.69,3.88c1.96,1.31,3.65,2.79,5.06,4.46
				c1.43,1.66,2.42,3.58,2.98,5.77C-207.22-531.53-207.32-528.98-208.1-526.08z"/>
		</g>
	</g>
</g>
<g>
	<g transform="translate(925.161668, 1016.393748)">
		<g>
			<path class="st0" d="M-203.53-570.29c-0.31,0.89-1.01,1.4-2.1,1.52c-1.1,0.11-2.24,0.14-3.42,0.08c-0.36,0-0.72,0-1.08,0
				c-0.35,0-0.7,0-1.06,0c-0.24,0.17-0.18,0.61,0.19,1.33c0.11,0.24,0.21,0.49,0.29,0.75c0.09,0.27,0.15,0.52,0.15,0.75
				c-0.24,0.24-0.42,0.52-0.54,0.85c-0.11,0.32-0.22,0.72-0.33,1.19c-0.07,1.49-0.1,2.96-0.1,4.42c0,1.45-0.03,2.94-0.08,4.48
				c-0.06,5.7-0.1,11.45-0.15,17.27c-0.03,5.81-0.04,11.58-0.04,17.33c1.38,0.07,2.86,0.41,4.46,1c1.59,0.58,2.75,1.5,3.46,2.75
				c-1.47,0.89-3.18,1.36-5.1,1.42c-1.93,0.06-3.93,0.03-6-0.08c-1.25-0.05-2.49-0.09-3.71-0.12c-1.21-0.04-2.38,0.03-3.5,0.21
				c-0.36,0.06-0.64,0.19-0.81,0.4c-0.17,0.21-0.34,0.43-0.52,0.67c-0.18,0.36-0.43,0.67-0.73,0.94c-0.29,0.26-0.77,0.31-1.42,0.15
				c-0.58-0.83-0.81-1.67-0.67-2.5c0.15-0.83,0.48-1.61,0.98-2.35c0.51-0.75,0.97-1.36,1.38-1.83c0.3,0,0.61,0,0.94,0
				c0.33,0,0.67,0,1.02,0c0.72,0,1.44,0,2.15,0c0.71,0,1.33-0.11,1.88-0.35c-0.07-5.33-0.1-11.01-0.1-17.02
				c0-6.03-0.06-11.98-0.17-17.85c-0.07-4.62-0.25-9.07-0.54-13.33c-0.42-0.12-0.86-0.2-1.33-0.23c-0.47-0.03-0.98-0.04-1.52-0.04
				c-0.82,0-1.62-0.03-2.4-0.08c-0.77-0.05-1.45-0.32-2.04-0.81c-0.12-0.47-0.11-0.82,0.04-1.06c0.15-0.23,0.32-0.47,0.5-0.71
				c0.17-0.18,0.3-0.38,0.42-0.58c0.12-0.21,0.19-0.46,0.19-0.75c1.84,0,3.82-0.09,5.92-0.27c2.11-0.18,4.17-0.27,6.19-0.27
				c2.01,0,3.85,0.18,5.52,0.54C-205.69-572.15-204.42-571.41-203.53-570.29z"/>
		</g>
	</g>
</g>
<g>
	<g transform="translate(969.788495, 1016.393748)">
		<g>
			<path class="st0" d="M-157.53-539.68c-0.24,0.77-0.77,1.21-1.6,1.33c-0.83,0.11-1.75,0.17-2.75,0.17c-0.42,0-0.85,0.02-1.29,0.04
				c-0.45,0.03-0.85,0.08-1.21,0.15c-0.53,1.24-0.84,2.73-0.94,4.48c-0.08,1.75-0.1,3.58-0.04,5.48c0.07,1.83,0.07,3.68,0,5.52
				c-0.06,1.83-0.35,3.47-0.88,4.9c-0.78,0.53-1.56,0.81-2.33,0.83c-0.77,0.03-1.53-0.28-2.29-0.94c-1.79,1.2-3.97,2.14-6.52,2.81
				c-2.54,0.68-5.21,1.06-8,1.15c-2.78,0.09-5.49-0.2-8.12-0.88c-2.64-0.69-4.97-1.81-6.98-3.35c-0.54-0.4-1.01-0.97-1.4-1.71
				c-0.38-0.75-0.83-1.4-1.38-1.94c-0.58-0.65-1.22-1.18-1.92-1.58c-0.68-0.42-1.2-0.86-1.54-1.35c-1.78-2.43-3.1-5.23-3.96-8.4
				c-0.86-3.17-1.29-6.44-1.29-9.83c0-2.07,0.15-4.12,0.44-6.17c0.3-2.05,0.72-4.03,1.25-5.94c1.01-3.5,2.45-6.67,4.31-9.5
				c1.88-2.84,4.11-5.01,6.71-6.5c1.72-0.96,3.69-1.73,5.92-2.31c2.23-0.59,4.57-0.92,7-0.98c1.89-0.05,3.8,0.11,5.73,0.5
				c1.93,0.38,3.72,1.01,5.38,1.9c0.42-0.36,0.86-0.49,1.33-0.4c0.48,0.08,0.96,0.19,1.44,0.31c0.34,0.11,0.67,0.22,0.96,0.31
				c0.3,0.08,0.6,0.1,0.9,0.04c0.36-0.05,0.71-0.17,1.06-0.35c0.36-0.18,0.69-0.36,1-0.54c0.47-0.29,0.93-0.53,1.38-0.71
				c0.44-0.18,0.93-0.15,1.46,0.08c-0.29,1.02-0.41,2.12-0.35,3.31c0.05,1.18,0.15,2.39,0.27,3.62c0.05,0.6,0.11,1.2,0.17,1.79
				c0.07,0.58,0.1,1.15,0.1,1.69c0.05,1.36-0.07,2.6-0.38,3.73c-0.29,1.12-0.94,2.02-1.94,2.67c-1.02-0.47-1.6-1.11-1.75-1.94
				c-0.14-0.83-0.21-1.73-0.21-2.69c0-0.53-0.04-1.07-0.1-1.62c-0.06-0.57-0.18-1.12-0.35-1.67c-0.77-2.25-2.53-3.88-5.29-4.88
				c-2.75-1.01-5.7-1.46-8.83-1.35c-2.2,0.07-4.36,0.38-6.5,0.92c-2.14,0.53-3.89,1.29-5.25,2.29c-1.83,1.31-3.35,3.03-4.54,5.17
				c-1.18,2.14-2.07,4.51-2.67,7.1c-0.29,1.49-0.52,3.02-0.67,4.58c-0.16,1.57-0.23,3.16-0.23,4.77c0.07,3.61,0.51,7.18,1.33,10.71
				c0.83,3.53,2.03,6.65,3.6,9.35c1.57,2.7,3.45,4.67,5.65,5.92c2.26,0.82,4.8,1.31,7.6,1.46c2.82,0.16,5.48-0.09,8-0.75
				c2.53-0.65,4.44-1.72,5.75-3.21c-0.18-1.42-0.27-2.96-0.27-4.62c0-1.67,0.06-3.32,0.19-4.98c0-1.01,0.01-2.02,0.04-3.02
				c0.03-1.01,0.04-1.99,0.04-2.94c-0.53-0.54-1.22-0.81-2.08-0.81c-0.86,0-1.68,0.06-2.46,0.19c-0.66,0.11-1.24,0.17-1.77,0.17
				c-0.53,0-0.95-0.11-1.25-0.35c-0.29-2.19,0.09-3.45,1.17-3.77c1.07-0.33,2.64-0.44,4.71-0.31c0.71,0,1.44,0.02,2.21,0.04
				c0.78,0.03,1.58,0.02,2.42-0.04c0.36,0,0.71-0.01,1.06-0.04c0.36-0.03,0.72-0.07,1.08-0.15c1.42-0.11,2.83-0.17,4.25-0.17
				c1.43,0,2.63,0.22,3.6,0.67C-158.38-541.78-157.77-540.93-157.53-539.68z"/>
		</g>
	</g>
</g>
<g>
	<g transform="translate(1034.226142, 1016.393748)">
		<g>
			<path class="st0" d="M-133.82-571.18c-0.06,1.25-0.67,1.99-1.83,2.23c-1.16,0.24-2.41,0.35-3.77,0.35
				c-0.47,0.11-0.79,0.39-0.94,0.83c-0.16,0.45-0.29,0.93-0.42,1.44c-0.11,0.5-0.46,0.93-1.04,1.29c0.17,1.6,0.29,3.26,0.38,4.98
				c0.09,1.72,0.17,3.47,0.23,5.25c0.07,2.02,0.1,4.08,0.1,6.19c0,2.1,0,4.22,0,6.35c0.05,4.57,0.12,9.06,0.21,13.48
				c0.09,4.42,0.41,8.47,0.94,12.15c-0.66,0.95-1.66,1.48-3.02,1.6c-1.36,0.11-2.31-0.16-2.85-0.81c-1.42-1.72-2.77-3.65-4.04-5.77
				c-1.28-2.14-2.78-4.22-4.5-6.25c-3.2-3.79-6.28-8.11-9.25-12.98c-2.96-4.86-5.93-9.55-8.9-14.06c-1.12-1.83-2.29-3.57-3.48-5.23
				c-1.18-1.67-2.36-3.24-3.54-4.73c-0.06,1.78-0.12,3.47-0.19,5.08c-0.06,1.6-0.08,3.22-0.08,4.88c0,2.2,0.03,4.47,0.08,6.81
				c0.07,2.35,0.13,4.95,0.19,7.79c0,1.07-0.02,2.18-0.04,3.33c-0.03,1.16-0.08,2.29-0.15,3.42c-0.11,2.38-0.18,4.62-0.21,6.73
				c-0.03,2.1,0.22,3.83,0.75,5.19c0.29,0.83,0.82,1.46,1.58,1.88c0.78,0.42,1.58,0.79,2.42,1.12c0.83,0.32,1.46,0.78,1.88,1.38
				c-0.24,0.71-0.73,1.18-1.48,1.42c-0.74,0.24-1.29,0.62-1.65,1.15c-1.06-0.4-2.17-0.59-3.33-0.56c-1.16,0.03-2.29,0.14-3.42,0.31
				c-1.25,0.11-2.44,0.17-3.56,0.17s-2.16-0.26-3.1-0.79c-0.36-0.47-0.5-0.86-0.42-1.19c0.09-0.33,0.23-0.65,0.42-0.96
				c0.11-0.23,0.22-0.46,0.33-0.67c0.12-0.21,0.19-0.46,0.19-0.75c0.78-0.29,1.57-0.54,2.4-0.75c0.83-0.21,1.67-0.43,2.5-0.67
				c0.54-4.57,0.76-9.34,0.67-14.33c-0.08-4.98-0.28-10.11-0.58-15.4c0-0.76-0.02-1.53-0.04-2.29c-0.03-0.78-0.07-1.55-0.12-2.33
				c-0.06-2.25-0.14-4.48-0.23-6.71c-0.08-2.22-0.16-4.46-0.21-6.71c-0.72,0.24-1.47,0.33-2.25,0.27c-0.77-0.07-1.41-0.25-1.94-0.54
				c-0.6-0.42-0.96-0.98-1.08-1.69c-0.11-0.72,0.25-1.55,1.08-2.5c0.76,0.06,1.53,0.08,2.29,0.08c0.78,0,1.55-0.03,2.33-0.08
				c2.01,0,3.98,0.06,5.92,0.19c1.93,0.11,3.75,0.56,5.46,1.33c0,0.29-0.08,0.5-0.23,0.62c-0.14,0.11-0.3,0.23-0.48,0.35
				c-0.47,0.18-0.71,0.42-0.71,0.71c1.67,2.43,3.34,4.88,5.02,7.33c1.69,2.46,3.38,4.91,5.04,7.33c3.19,4.57,6.41,9.14,9.65,13.71
				c3.23,4.57,6.42,9.08,9.56,13.52c-0.12-4.57-0.19-9.1-0.19-13.6c0-4.51-0.06-9.02-0.17-13.52c-0.12-4.46-0.4-8.91-0.81-13.35
				c-0.41-0.18-0.81-0.3-1.23-0.35c-0.42-0.05-0.83-0.08-1.25-0.08c-0.78-0.12-1.47-0.27-2.06-0.44c-0.58-0.18-0.91-0.66-0.96-1.44
				c-0.07-1,0.65-1.72,2.17-2.17c1.51-0.44,3.28-0.7,5.29-0.77c1.54-0.05,3.08,0.01,4.62,0.19c1.54,0.18,2.88,0.45,4,0.81
				C-134.75-572.06-134.06-571.65-133.82-571.18z"/>
		</g>
	</g>
</g>
</svg>
