<svg width="20" height="20" viewBox="0 0 20 20" fill="none" xmlns="http://www.w3.org/2000/svg">
<path d="M16.875 0H3.125C1.39911 0 0 1.39911 0 3.125V16.875C0 18.6009 1.39911 20 3.125 20H16.875C18.6009 20 20 18.6009 20 16.875V3.125C20 1.39911 18.6009 0 16.875 0Z" fill="#333333"/>
<path d="M5 7.99993L5.4375 8.56243C5.4375 8.56243 6.25 7.87493 6.5625 8.24993C6.8125 8.56243 7.9375 12.5624 8.25 13.3124C8.5625 13.9374 9.4375 14.8124 10.375 14.1874C11.3125 13.5624 14.4375 10.9374 15 7.74993C15.5625 4.62493 11.25 5.24993 10.8125 7.99993C11.875 7.31243 12.5 8.24993 11.875 9.37493C11.3125 10.4374 10.75 11.1874 10.5 11.1874C10.25 11.1874 10 10.4374 9.6875 9.18743C9.375 7.81243 9.375 5.43743 8 5.74993C6.6875 5.99993 5 7.99993 5 7.99993Z" fill="#999999"/>
</svg>
